                                                                        S      1
,,15HV bearing mount,5HJ3BBM,7Hunknown,7Hunknown,32,38,7,99,15,,1.,2,2HMG      1
M,1,0.08,15H20230117.224517,0.01,10000.,7Hunknown,7Hunknown,11,0,;      G      2
     186       1                                                00000000D      1
     186            -147       1       0                               0D      2
     514       2                                                00010000D      3
     514                       1       1                               0D      4
     510       3                                                00010000D      5
     510            -147       1       1                               0D      6
     510       4                                                00010000D      7
     510            -147       1       1                               0D      8
     510       5                                                00010000D      9
     510            -147       1       1                               0D     10
     510       6                                                00010000D     11
     510            -147       1       1                               0D     12
     510       7                                                00010000D     13
     510            -147       1       1                               0D     14
     510       8                                                00010000D     15
     510            -147       1       1                               0D     16
     510       9                                                00010000D     17
     510            -147       1       1                               0D     18
     510      10                                                00010000D     19
     510            -147       1       1                               0D     20
     510      11                                                00010000D     21
     510            -147       1       1                               0D     22
     510      12                                                00010000D     23
     510            -147       1       1                               0D     24
     508      13                                                00010000D     25
     508                       1       1                               0D     26
     508      14                                                00010000D     27
     508                       1       1                               0D     28
     508      15                                                00010000D     29
     508                       1       1                               0D     30
     508      16                                                00010000D     31
     508                       1       1                               0D     32
     508      17                                                00010000D     33
     508                       1       1                               0D     34
     508      18                                                00010000D     35
     508                       1       1                               0D     36
     508      19                                                00010000D     37
     508                       1       1                               0D     38
     508      20                                                00010000D     39
     508                       1       1                               0D     40
     508      21                                                00010000D     41
     508                       1       1                               0D     42
     508      22                                                00010000D     43
     508                       1       1                               0D     44
     508      23                                                00010000D     45
     508                       1       1                               0D     46
     508      24                                                00010000D     47
     508                       1       1                               0D     48
     508      25                                                00010000D     49
     508                       1       1                               0D     50
     508      26                                                00010000D     51
     508                       1       1                               0D     52
     508      27                                                00010000D     53
     508                       1       1                               0D     54
     508      28                                                00010000D     55
     508                       1       1                               0D     56
     508      29                                                00010000D     57
     508                       1       1                               0D     58
     508      30                                                00010000D     59
     508                       1       1                               0D     60
     508      31                                                00010000D     61
     508                       1       1                               0D     62
     508      32                                                00010000D     63
     508                       1       1                               0D     64
     508      33                                                00010000D     65
     508                       1       1                               0D     66
     508      34                                                00010000D     67
     508                       1       1                               0D     68
     508      35                                                00010000D     69
     508                       1       1                               0D     70
     508      36                                                00010000D     71
     508                       1       1                               0D     72
     126      37                                                00010000D     73
     126       0              16       0                               0D     74
     126      53                                                00010000D     75
     126       0               4       0                               0D     76
     126      57                                                00010000D     77
     126       0              16       0                               0D     78
     126      73                                                00010000D     79
     126       0              16       0                               0D     80
     126      89                                                00010000D     81
     126       0               4       0                               0D     82
     126      93                                                00010000D     83
     126       0              16       0                               0D     84
     126     109                                                00010000D     85
     126       0              13       0                               0D     86
     126     122                                                00010000D     87
     126       0               4       0                               0D     88
     126     126                                                00010000D     89
     126       0              13       0                               0D     90
     126     139                                                00010000D     91
     126       0              16       0                               0D     92
     126     155                                                00010000D     93
     126       0               4       0                               0D     94
     126     159                                                00010000D     95
     126       0              16       0                               0D     96
     126     175                                                00010000D     97
     126       0              16       0                               0D     98
     126     191                                                00010000D     99
     126       0               4       0                               0D    100
     126     195                                                00010000D    101
     126       0              15       0                               0D    102
     126     210                                                00010000D    103
     126       0              13       0                               0D    104
     126     223                                                00010000D    105
     126       0               4       0                               0D    106
     126     227                                                00010000D    107
     126       0              13       0                               0D    108
     126     240                                                00010000D    109
     126       0              15       0                               0D    110
     126     255                                                00010000D    111
     126       0              15       0                               0D    112
     126     270                                                00010000D    113
     126       0              15       0                               0D    114
     126     285                                                00010000D    115
     126       0               3       0                               0D    116
     126     288                                                00010000D    117
     126       0              15       0                               0D    118
     126     303                                                00010000D    119
     126       0               4       0                               0D    120
     128     307                                                00010000D    121
     128       0    -147      26       0                               0D    122
     128     333                                                00010000D    123
     128       0    -147      26       0                               0D    124
     128     359                                                00010000D    125
     128       0    -147      22       0                               0D    126
     128     381                                                00010000D    127
     128       0    -147      26       0                               0D    128
     128     407                                                00010000D    129
     128       0    -147      26       0                               0D    130
     128     433                                                00010000D    131
     128       0    -147      22       0                               0D    132
     128     455                                                00010000D    133
     128       0    -147       6       0                               0D    134
     128     461                                                00010000D    135
     128       0    -147      26       0                               0D    136
     128     487                                                00010000D    137
     128       0    -147      26       0                               0D    138
     128     513                                                00010000D    139
     128       0    -147       6       0                               0D    140
     502     519                                                00010000D    141
     502                      15       1                               0D    142
     504     534                                                00010001D    143
     504                       7       1                               0D    144
     406     541                                                00000000D    145
     406                       1      15                               0D    146
     314     542                                                00000200D    147
     314                       2       0                               0D    148
186,3,1,0,0,1,145;                                                     1P      1
514,10,5,1,7,1,9,1,11,1,13,1,15,1,17,1,19,1,21,1,23,1;                 3P      2
510,121,1,1,25;                                                        5P      3
510,123,1,1,27;                                                        7P      4
510,125,1,1,29;                                                        9P      5
510,127,1,1,31;                                                       11P      6
510,129,1,1,33;                                                       13P      7
510,131,1,1,35;                                                       15P      8
510,133,8,1,37,39,41,43,45,47,49,51;                                  17P      9
510,135,1,1,53;                                                       19P     10
510,137,1,1,55;                                                       21P     11
510,139,8,1,57,59,61,63,65,67,69,71;                                  23P     12
508,4,0,143,1,0,0,0,143,2,1,0,0,143,3,0,0,0,143,2,0,0;                25P     13
508,4,0,143,4,0,0,0,143,5,1,0,0,143,6,0,0,0,143,5,0,0;                27P     14
508,4,0,143,7,0,0,0,143,8,1,0,0,143,9,0,0,0,143,8,0,0;                29P     15
508,4,0,143,10,0,0,0,143,11,1,0,0,143,12,0,0,0,143,11,0,0;            31P     16
508,4,0,143,13,0,0,0,143,14,1,0,0,143,15,0,0,0,143,14,0,0;            33P     17
508,4,0,143,16,0,0,0,143,17,1,0,0,143,18,0,0,0,143,17,0,0;            35P     18
508,1,0,143,19,1,0;                                                   37P     19
508,1,0,143,1,1,0;                                                    39P     20
508,1,0,143,4,1,0;                                                    41P     21
508,1,0,143,7,1,0;                                                    43P     22
508,1,0,143,10,1,0;                                                   45P     23
508,1,0,143,13,1,0;                                                   47P     24
508,1,0,143,16,1,0;                                                   49P     25
508,1,0,143,20,1,0;                                                   51P     26
508,4,0,143,21,0,0,0,143,22,1,0,0,143,20,0,0,0,143,22,0,0;            53P     27
508,4,0,143,23,0,0,0,143,24,1,0,0,143,19,0,0,0,143,24,0,0;            55P     28
508,1,0,143,23,1,0;                                                   57P     29
508,1,0,143,3,1,0;                                                    59P     30
508,1,0,143,6,1,0;                                                    61P     31
508,1,0,143,9,1,0;                                                    63P     32
508,1,0,143,12,1,0;                                                   65P     33
508,1,0,143,15,1,0;                                                   67P     34
508,1,0,143,18,1,0;                                                   69P     35
508,1,0,143,21,1,0;                                                   71P     36
126,8,2,0,1,0,0,-3.14159265358979,-3.14159265358979,                  73P     37
-3.14159265358979,-1.5707963267949,-1.5707963267949,                  73P     38
-4.44089209850063D-16,-4.44089209850063D-16,1.5707963267949,          73P     39
1.5707963267949,3.14159265358979,3.14159265358979,                    73P     40
3.14159265358979,1.,0.707106781186546,1.,0.707106781186546,1.,        73P     41
0.707106781186546,1.,0.707106781186546,1.,-24.9222621135332,          73P     42
96.6000000000003,-28.8333757798117,-23.0888863337215,                 73P     43
96.6000000000003,-27.7748757798117,-24.1473863337215,                 73P     44
96.6000000000003,-25.9415000000001,-25.2058863337215,                 73P     45
96.6000000000003,-24.1081242201884,-27.0392621135332,                 73P     46
96.6000000000003,-25.1666242201884,-28.8726378933448,                 73P     47
96.6000000000003,-26.2251242201884,-27.8141378933448,                 73P     48
96.6000000000003,-28.0585000000001,-26.7556378933448,                 73P     49
96.6000000000003,-29.8918757798117,-24.9222621135332,                 73P     50
96.6000000000003,-28.8333757798117,-3.14159265358979,                 73P     51
3.14159265358979,0.,0.,0.;                                            73P     52
126,1,1,0,0,1,0,5.99999999999999,5.99999999999999,10.8,10.8,1.,       75P     53
1.,-24.9222621135332,96.6000000000003,-28.8333757798117,              75P     54
-24.9222621135332,84.6000000000003,-28.8333757798117,                 75P     55
5.99999999999999,10.8,0.,0.,0.;                                       75P     56
126,8,2,0,1,0,0,-3.14159265358979,-3.14159265358979,                  77P     57
-3.14159265358979,-1.5707963267949,-1.5707963267949,                  77P     58
2.22044604925031D-16,2.22044604925031D-16,1.5707963267949,            77P     59
1.5707963267949,3.14159265358979,3.14159265358979,                    77P     60
3.14159265358979,1.,0.707106781186546,1.,0.707106781186546,1.,        77P     61
0.707106781186546,1.,0.707106781186546,1.,-24.9222621135332,          77P     62
84.6000000000003,-28.8333757798117,-26.7556378933448,                 77P     63
84.6000000000003,-29.8918757798117,-27.8141378933448,                 77P     64
84.6000000000003,-28.0585000000001,-28.8726378933448,                 77P     65
84.6000000000003,-26.2251242201884,-27.0392621135332,                 77P     66
84.6000000000003,-25.1666242201884,-25.2058863337215,                 77P     67
84.6000000000003,-24.1081242201884,-24.1473863337215,                 77P     68
84.6000000000003,-25.9415000000001,-23.0888863337215,                 77P     69
84.6000000000003,-27.7748757798117,-24.9222621135332,                 77P     70
84.6000000000003,-28.8333757798117,-3.14159265358979,                 77P     71
3.14159265358979,0.,0.,0.;                                            77P     72
126,8,2,0,1,0,0,-3.14159265358979,-3.14159265358979,                  79P     73
-3.14159265358979,-1.5707963267949,-1.5707963267949,                  79P     74
-4.44089209850063D-16,-4.44089209850063D-16,1.5707963267949,          79P     75
1.5707963267949,3.14159265358979,3.14159265358979,                    79P     76
3.14159265358979,1.,0.707106781186548,1.,0.707106781186546,1.,        79P     77
0.707106781186549,1.,0.707106781186546,1.,-27.0392621135332,          79P     78
96.6000000000003,1.16662422018828,-25.2058863337215,                  79P     79
96.6000000000003,0.108124220188277,-24.1473863337215,                 79P     80
96.6000000000003,1.94149999999993,-23.0888863337215,                  79P     81
96.6000000000003,3.77487577981159,-24.9222621135332,                  79P     82
96.6000000000003,4.83337577981159,-26.7556378933448,                  79P     83
96.6000000000003,5.89187577981159,-27.8141378933448,                  79P     84
96.6000000000003,4.05849999999994,-28.8726378933448,                  79P     85
96.6000000000003,2.22512422018828,-27.0392621135332,                  79P     86
96.6000000000003,1.16662422018828,-3.14159265358979,                  79P     87
3.14159265358979,0.,0.,0.;                                            79P     88
126,1,1,0,0,1,0,5.99999999999999,5.99999999999999,10.8,10.8,1.,       81P     89
1.,-27.0392621135332,96.6000000000003,1.16662422018828,               81P     90
-27.0392621135332,84.6000000000003,1.16662422018828,                  81P     91
5.99999999999999,10.8,0.,0.,0.;                                       81P     92
126,8,2,0,1,0,0,-3.14159265358979,-3.14159265358979,                  83P     93
-3.14159265358979,-1.5707963267949,-1.5707963267949,                  83P     94
2.22044604925031D-16,2.22044604925031D-16,1.5707963267949,            83P     95
1.5707963267949,3.14159265358979,3.14159265358979,                    83P     96
3.14159265358979,1.,0.707106781186546,1.,0.707106781186547,1.,        83P     97
0.707106781186546,1.,0.707106781186548,1.,-27.0392621135332,          83P     98
84.6000000000003,1.16662422018828,-28.8726378933448,                  83P     99
84.6000000000003,2.22512422018828,-27.8141378933448,                  83P    100
84.6000000000003,4.05849999999994,-26.7556378933448,                  83P    101
84.6000000000003,5.8918757798116,-24.9222621135332,                   83P    102
84.6000000000003,4.83337577981159,-23.0888863337215,                  83P    103
84.6000000000003,3.77487577981159,-24.1473863337215,                  83P    104
84.6000000000003,1.94149999999994,-25.2058863337215,                  83P    105
84.6000000000003,0.10812422018828,-27.0392621135332,                  83P    106
84.6000000000003,1.16662422018828,-3.14159265358979,                  83P    107
3.14159265358979,0.,0.,0.;                                            83P    108
126,8,2,0,1,0,0,-3.14159265358979,-3.14159265358979,                  85P    109
-3.14159265358979,-1.5707963267949,-1.5707963267949,0.,0.,            85P    110
1.5707963267949,1.5707963267949,3.14159265358979,                     85P    111
3.14159265358979,3.14159265358979,1.,0.707106781186548,1.,            85P    112
0.707106781186548,1.,0.707106781186546,1.,0.707106781186546,1.,       85P    113
-2.117,96.6000000000003,17.9999999999999,-2.117,                      85P    114
96.6000000000003,15.8829999999999,3.54431153375231D-15,               85P    115
96.6000000000003,15.8829999999999,2.117,96.6000000000003,             85P    116
15.8829999999999,2.117,96.6000000000003,17.9999999999999,2.117,       85P    117
96.6000000000003,20.1169999999999,4.0628269885113D-15,                85P    118
96.6000000000003,20.1169999999999,-2.117,96.6000000000003,            85P    119
20.1169999999999,-2.117,96.6000000000003,17.9999999999999,            85P    120
-3.14159265358979,3.14159265358979,0.,0.,0.;                          85P    121
126,1,1,0,0,1,0,5.99999999999999,5.99999999999999,10.8,10.8,1.,       87P    122
1.,-2.117,96.6000000000003,17.9999999999999,-2.117,                   87P    123
84.6000000000003,17.9999999999999,5.99999999999999,10.8,0.,0.,        87P    124
0.;                                                                   87P    125
126,8,2,0,1,0,0,-3.14159265358979,-3.14159265358979,                  89P    126
-3.14159265358979,-1.5707963267949,-1.5707963267949,0.,0.,            89P    127
1.5707963267949,1.5707963267949,3.14159265358979,                     89P    128
3.14159265358979,3.14159265358979,1.,0.707106781186548,1.,            89P    129
0.707106781186548,1.,0.707106781186548,1.,0.707106781186548,1.,       89P    130
-2.117,84.6000000000003,17.9999999999999,-2.117,                      89P    131
84.6000000000003,20.1169999999999,4.0628269885113D-15,                89P    132
84.6000000000003,20.1169999999999,2.117,84.6000000000003,             89P    133
20.1169999999999,2.117,84.6000000000003,17.9999999999999,2.117,       89P    134
84.6000000000003,15.8829999999999,3.54431153375231D-15,               89P    135
84.6000000000003,15.8829999999999,-2.117,84.6000000000003,            89P    136
15.8829999999999,-2.117,84.6000000000003,17.9999999999999,            89P    137
-3.14159265358979,3.14159265358979,0.,0.,0.;                          89P    138
126,8,2,0,1,0,0,-3.14159265358979,-3.14159265358979,                  91P    139
-3.14159265358979,-1.5707963267949,-1.5707963267949,                  91P    140
-4.44089209850063D-16,-4.44089209850063D-16,1.5707963267949,          91P    141
1.5707963267949,3.14159265358979,3.14159265358979,                    91P    142
3.14159265358979,1.,0.707106781186547,1.,0.707106781186547,1.,        91P    143
0.707106781186547,1.,0.707106781186546,1.,24.9222621135332,           91P    144
96.6000000000003,4.83337577981157,23.0888863337215,                   91P    145
96.6000000000003,3.77487577981157,24.1473863337215,                   91P    146
96.6000000000003,1.94149999999992,25.2058863337215,                   91P    147
96.6000000000003,0.10812422018826,27.0392621135332,                   91P    148
96.6000000000003,1.16662422018826,28.8726378933448,                   91P    149
96.6000000000003,2.22512422018826,27.8141378933448,                   91P    150
96.6000000000003,4.05849999999992,26.7556378933448,                   91P    151
96.6000000000003,5.89187577981157,24.9222621135332,                   91P    152
96.6000000000003,4.83337577981157,-3.14159265358979,                  91P    153
3.14159265358979,0.,0.,0.;                                            91P    154
126,1,1,0,0,1,0,5.99999999999999,5.99999999999999,10.8,10.8,1.,       93P    155
1.,24.9222621135332,96.6000000000003,4.83337577981157,                93P    156
24.9222621135332,84.6000000000003,4.83337577981158,                   93P    157
5.99999999999999,10.8,0.,0.,0.;                                       93P    158
126,8,2,0,1,0,0,-3.14159265358979,-3.14159265358979,                  95P    159
-3.14159265358979,-1.5707963267949,-1.5707963267949,                  95P    160
2.22044604925031D-16,2.22044604925031D-16,1.5707963267949,            95P    161
1.5707963267949,3.14159265358979,3.14159265358979,                    95P    162
3.14159265358979,1.,0.707106781186547,1.,0.707106781186547,1.,        95P    163
0.707106781186547,1.,0.707106781186547,1.,24.9222621135332,           95P    164
84.6000000000003,4.83337577981158,26.7556378933448,                   95P    165
84.6000000000003,5.89187577981158,27.8141378933448,                   95P    166
84.6000000000003,4.05849999999992,28.8726378933448,                   95P    167
84.6000000000003,2.22512422018826,27.0392621135332,                   95P    168
84.6000000000003,1.16662422018826,25.2058863337215,                   95P    169
84.6000000000003,0.108124220188263,24.1473863337215,                  95P    170
84.6000000000003,1.94149999999992,23.0888863337215,                   95P    171
84.6000000000003,3.77487577981158,24.9222621135332,                   95P    172
84.6000000000003,4.83337577981158,-3.14159265358979,                  95P    173
3.14159265358979,0.,0.,0.;                                            95P    174
126,8,2,0,1,0,0,-3.14159265358979,-3.14159265358979,                  97P    175
-3.14159265358979,-1.5707963267949,-1.5707963267949,                  97P    176
-1.33226762955019D-15,-1.33226762955019D-15,1.5707963267949,          97P    177
1.5707963267949,3.14159265358979,3.14159265358979,                    97P    178
3.14159265358979,1.,0.707106781186546,1.,0.707106781186546,1.,        97P    179
0.707106781186546,1.,0.707106781186546,1.,27.0392621135332,           97P    180
96.6000000000003,-25.1666242201884,25.2058863337215,                  97P    181
96.6000000000003,-24.1081242201884,24.1473863337215,                  97P    182
96.6000000000003,-25.9415000000001,23.0888863337215,                  97P    183
96.6000000000003,-27.7748757798117,24.9222621135332,                  97P    184
96.6000000000003,-28.8333757798117,26.7556378933448,                  97P    185
96.6000000000003,-29.8918757798117,27.8141378933448,                  97P    186
96.6000000000003,-28.0585000000001,28.8726378933448,                  97P    187
96.6000000000003,-26.2251242201884,27.0392621135332,                  97P    188
96.6000000000003,-25.1666242201884,-3.14159265358979,                 97P    189
3.14159265358979,0.,0.,0.;                                            97P    190
126,1,1,0,0,1,0,5.99999999999999,5.99999999999999,10.8,10.8,1.,       99P    191
1.,27.0392621135332,96.6000000000003,-25.1666242201884,               99P    192
27.0392621135332,84.6000000000003,-25.1666242201884,                  99P    193
5.99999999999999,10.8,0.,0.,0.;                                       99P    194
126,8,2,0,1,0,0,-3.14159265358979,-3.14159265358979,                 101P    195
-3.14159265358979,-1.5707963267949,-1.5707963267949,0.,0.,           101P    196
1.5707963267949,1.5707963267949,3.14159265358979,                    101P    197
3.14159265358979,3.14159265358979,1.,0.707106781186541,1.,           101P    198
0.707106781186541,1.,0.707106781186541,1.,0.707106781186541,1.,      101P    199
27.0392621135332,84.6000000000003,-25.1666242201884,                 101P    200
28.8726378933448,84.6000000000003,-26.2251242201884,                 101P    201
27.8141378933448,84.6000000000003,-28.0585000000001,                 101P    202
26.7556378933448,84.6000000000003,-29.8918757798117,                 101P    203
24.9222621135332,84.6000000000003,-28.8333757798117,                 101P    204
23.0888863337215,84.6000000000003,-27.7748757798117,                 101P    205
24.1473863337215,84.6000000000003,-25.9415000000001,                 101P    206
25.2058863337215,84.6000000000003,-24.1081242201884,                 101P    207
27.0392621135332,84.6000000000003,-25.1666242201884,                 101P    208
-3.14159265358979,3.14159265358979,0.,0.,0.;                         101P    209
126,8,2,0,1,0,0,-3.14159265358979,-3.14159265358979,                 103P    210
-3.14159265358979,-1.5707963267949,-1.5707963267949,0.,0.,           103P    211
1.5707963267949,1.5707963267949,3.14159265358979,                    103P    212
3.14159265358979,3.14159265358979,1.,0.707106781186545,1.,           103P    213
0.707106781186545,1.,0.707106781186549,1.,0.707106781186549,1.,      103P    214
2.117,96.6000000000003,-42.0000000000001,2.117,96.6000000000003,     103P    215
-39.8830000000001,-1.29628863689748D-16,96.6000000000003,            103P    216
-39.8830000000001,-2.117,96.6000000000003,-39.8830000000001,         103P    217
-2.117,96.6000000000003,-42.0000000000001,-2.117,                    103P    218
96.6000000000003,-44.1170000000001,-1.29628863689748D-16,            103P    219
96.6000000000003,-44.1170000000001,2.117,96.6000000000003,           103P    220
-44.1170000000001,2.117,96.6000000000003,-42.0000000000001,          103P    221
-3.14159265358979,3.14159265358979,0.,0.,0.;                         103P    222
126,1,1,0,0,1,0,5.99999999999999,5.99999999999999,10.8,10.8,1.,      105P    223
1.,2.117,96.6000000000003,-42.0000000000001,2.117,                   105P    224
84.6000000000003,-42.0000000000001,5.99999999999999,10.8,0.,0.,      105P    225
0.;                                                                  105P    226
126,8,2,0,1,0,0,-3.14159265358979,-3.14159265358979,                 107P    227
-3.14159265358979,-1.5707963267949,-1.5707963267949,0.,0.,           107P    228
1.5707963267949,1.5707963267949,3.14159265358979,                    107P    229
3.14159265358979,3.14159265358979,1.,0.707106781186549,1.,           107P    230
0.707106781186549,1.,0.707106781186545,1.,0.707106781186545,1.,      107P    231
2.117,84.6000000000003,-42.0000000000001,2.117,84.6000000000003,     107P    232
-44.1170000000001,-1.29628863689748D-16,84.6000000000003,            107P    233
-44.1170000000001,-2.117,84.6000000000003,-44.1170000000001,         107P    234
-2.117,84.6000000000003,-42.0000000000001,-2.117,                    107P    235
84.6000000000003,-39.8830000000001,-1.29628863689748D-16,            107P    236
84.6000000000003,-39.8830000000001,2.117,84.6000000000003,           107P    237
-39.8830000000001,2.117,84.6000000000003,-42.0000000000001,          107P    238
-3.14159265358979,3.14159265358979,0.,0.,0.;                         107P    239
126,8,2,0,1,0,0,-3.14159265358979,-3.14159265358979,                 109P    240
-3.14159265358979,-1.5707963267949,-1.5707963267949,0.,0.,           109P    241
1.5707963267949,1.5707963267949,3.14159265358979,                    109P    242
3.14159265358979,3.14159265358979,1.,0.707106781186547,1.,           109P    243
0.707106781186547,1.,0.707106781186548,1.,0.707106781186548,1.,      109P    244
40.0000000000055,96.6000000000003,-11.9999999999999,                 109P    245
40.0000000000055,96.6000000000003,-51.9999999999999,                 109P    246
5.48649334014841D-12,96.6000000000003,-51.9999999999999,             109P    247
-39.9999999999945,96.6000000000003,-51.9999999999999,                109P    248
-39.9999999999945,96.6000000000003,-11.9999999999999,                109P    249
-39.9999999999945,96.6000000000003,28.0000000000001,                 109P    250
5.48649334014841D-12,96.6000000000003,28.0000000000001,              109P    251
40.0000000000055,96.6000000000003,28.0000000000002,                  109P    252
40.0000000000055,96.6000000000003,-11.9999999999998,                 109P    253
-3.14159265358979,3.14159265358979,0.,0.,0.;                         109P    254
126,8,2,0,1,0,0,-3.14159265358979,-3.14159265358979,                 111P    255
-3.14159265358979,-1.5707963267949,-1.5707963267949,0.,0.,           111P    256
1.5707963267949,1.5707963267949,3.14159265358979,                    111P    257
3.14159265358979,3.14159265358979,1.,0.707106781186548,1.,           111P    258
0.707106781186548,1.,0.707106781186547,1.,0.707106781186547,1.,      111P    259
20.0000000000055,96.6000000000003,-11.9999999999998,                 111P    260
20.0000000000055,96.6000000000003,8.00000000000015,                  111P    261
5.48771798694756D-12,96.6000000000003,8.00000000000015,              111P    262
-19.9999999999945,96.6000000000003,8.00000000000015,                 111P    263
-19.9999999999945,96.6000000000003,-11.9999999999999,                111P    264
-19.9999999999945,96.6000000000003,-31.9999999999999,                111P    265
5.48771798694756D-12,96.6000000000003,-31.9999999999999,             111P    266
20.0000000000055,96.6000000000003,-31.9999999999999,                 111P    267
20.0000000000055,96.6000000000003,-11.9999999999999,                 111P    268
-3.14159265358979,3.14159265358979,0.,0.,0.;                         111P    269
126,8,2,0,1,0,0,-3.14159265358979,-3.14159265358979,                 113P    270
-3.14159265358979,-1.5707963267949,-1.5707963267949,0.,0.,           113P    271
1.5707963267949,1.5707963267949,3.14159265358979,                    113P    272
3.14159265358979,3.14159265358979,1.,0.707106781186548,1.,           113P    273
0.707106781186548,1.,0.707106781186548,1.,0.707106781186548,1.,      113P    274
20.0000000000055,84.6000000000003,-11.9999999999998,                 113P    275
20.0000000000055,84.6000000000003,-31.9999999999999,                 113P    276
5.48771798694756D-12,84.6000000000003,-31.9999999999998,             113P    277
-19.9999999999945,84.6000000000003,-31.9999999999998,                113P    278
-19.9999999999945,84.6000000000003,-11.9999999999998,                113P    279
-19.9999999999945,84.6000000000003,8.00000000000015,                 113P    280
5.48771798694756D-12,84.6000000000003,8.00000000000015,              113P    281
20.0000000000055,84.6000000000003,8.00000000000016,                  113P    282
20.0000000000055,84.6000000000003,-11.9999999999998,                 113P    283
-3.14159265358979,3.14159265358979,0.,0.,0.;                         113P    284
126,1,1,0,0,1,0,-0.5,-0.5,0.1,0.1,1.,1.,20.0000000000055,            115P    285
84.6000000000003,-11.9999999999998,20.0000000000055,                 115P    286
96.6000000000003,-11.9999999999999,-0.5,0.1,0.,0.,0.;                115P    287
126,8,2,0,1,0,0,-3.14159265358979,-3.14159265358979,                 117P    288
-3.14159265358979,-1.5707963267949,-1.5707963267949,0.,0.,           117P    289
1.5707963267949,1.5707963267949,3.14159265358979,                    117P    290
3.14159265358979,3.14159265358979,1.,0.707106781186548,1.,           117P    291
0.707106781186548,1.,0.707106781186547,1.,0.707106781186548,1.,      117P    292
40.0000000000055,84.6000000000003,-11.9999999999998,                 117P    293
40.0000000000055,84.6000000000003,28.0000000000002,                  117P    294
5.48649334014841D-12,84.6000000000003,28.0000000000002,              117P    295
-39.9999999999945,84.6000000000003,28.0000000000001,                 117P    296
-39.9999999999945,84.6000000000003,-11.9999999999998,                117P    297
-39.9999999999945,84.6000000000003,-51.9999999999999,                117P    298
5.48649334014841D-12,84.6000000000003,-51.9999999999999,             117P    299
40.0000000000055,84.6000000000003,-51.9999999999999,                 117P    300
40.0000000000055,84.6000000000003,-11.9999999999999,                 117P    301
-3.14159265358979,3.14159265358979,0.,0.,0.;                         117P    302
126,1,1,0,0,1,0,-0.25,-0.25,0.0499999999999999,                      119P    303
0.0499999999999999,1.,1.,40.0000000000055,84.6000000000003,          119P    304
-11.9999999999998,40.0000000000055,96.6000000000003,                 119P    305
-11.9999999999999,-0.25,0.0499999999999999,0.,0.,0.;                 119P    306
128,1,8,1,2,0,1,0,0,1,5.99999999999999,5.99999999999999,10.8,        121P    307
10.8,-3.14159265358979,-3.14159265358979,-3.14159265358979,          121P    308
-1.5707963267949,-1.5707963267949,0.,0.,1.5707963267949,             121P    309
1.5707963267949,3.14159265358979,3.14159265358979,                   121P    310
3.14159265358979,1.,1.,0.707106781186548,0.707106781186548,1.,       121P    311
1.,0.707106781186548,0.707106781186548,1.,1.,0.707106781186548,      121P    312
0.707106781186548,1.,1.,0.707106781186548,0.707106781186548,1.,      121P    313
1.,-24.9222621135332,96.6000000000003,-28.8333757798117,             121P    314
-24.9222621135332,84.6000000000003,-28.8333757798117,                121P    315
-23.0888863337215,96.6000000000003,-27.7748757798117,                121P    316
-23.0888863337215,84.6000000000003,-27.7748757798117,                121P    317
-24.1473863337215,96.6000000000003,-25.9415000000001,                121P    318
-24.1473863337215,84.6000000000003,-25.9415000000001,                121P    319
-25.2058863337215,96.6000000000003,-24.1081242201884,                121P    320
-25.2058863337215,84.6000000000003,-24.1081242201884,                121P    321
-27.0392621135332,96.6000000000003,-25.1666242201884,                121P    322
-27.0392621135332,84.6000000000003,-25.1666242201884,                121P    323
-28.8726378933448,96.6000000000003,-26.2251242201884,                121P    324
-28.8726378933448,84.6000000000003,-26.2251242201884,                121P    325
-27.8141378933448,96.6000000000003,-28.0585000000001,                121P    326
-27.8141378933448,84.6000000000003,-28.0585000000001,                121P    327
-26.7556378933448,96.6000000000003,-29.8918757798117,                121P    328
-26.7556378933448,84.6000000000003,-29.8918757798117,                121P    329
-24.9222621135332,96.6000000000003,-28.8333757798117,                121P    330
-24.9222621135332,84.6000000000003,-28.8333757798117,                121P    331
5.99999999999999,10.8,-3.14159265358979,3.14159265358979;            121P    332
128,1,8,1,2,0,1,0,0,1,5.99999999999999,5.99999999999999,10.8,        123P    333
10.8,-3.14159265358979,-3.14159265358979,-3.14159265358979,          123P    334
-1.5707963267949,-1.5707963267949,0.,0.,1.5707963267949,             123P    335
1.5707963267949,3.14159265358979,3.14159265358979,                   123P    336
3.14159265358979,1.,1.,0.707106781186548,0.707106781186548,1.,       123P    337
1.,0.707106781186548,0.707106781186548,1.,1.,0.707106781186548,      123P    338
0.707106781186548,1.,1.,0.707106781186548,0.707106781186548,1.,      123P    339
1.,-27.0392621135332,96.6000000000003,1.16662422018828,              123P    340
-27.0392621135332,84.6000000000003,1.16662422018828,                 123P    341
-25.2058863337215,96.6000000000003,0.108124220188276,                123P    342
-25.2058863337215,84.6000000000003,0.108124220188279,                123P    343
-24.1473863337215,96.6000000000003,1.94149999999993,                 123P    344
-24.1473863337215,84.6000000000003,1.94149999999993,                 123P    345
-23.0888863337215,96.6000000000003,3.77487577981159,                 123P    346
-23.0888863337215,84.6000000000003,3.77487577981159,                 123P    347
-24.9222621135332,96.6000000000003,4.83337577981159,                 123P    348
-24.9222621135332,84.6000000000003,4.83337577981159,                 123P    349
-26.7556378933448,96.6000000000003,5.89187577981159,                 123P    350
-26.7556378933448,84.6000000000003,5.8918757798116,                  123P    351
-27.8141378933448,96.6000000000003,4.05849999999994,                 123P    352
-27.8141378933448,84.6000000000003,4.05849999999994,                 123P    353
-28.8726378933448,96.6000000000003,2.22512422018828,                 123P    354
-28.8726378933448,84.6000000000003,2.22512422018828,                 123P    355
-27.0392621135332,96.6000000000003,1.16662422018828,                 123P    356
-27.0392621135332,84.6000000000003,1.16662422018828,                 123P    357
5.99999999999999,10.8,-3.14159265358979,3.14159265358979;            123P    358
128,1,8,1,2,0,1,0,0,1,5.99999999999999,5.99999999999999,10.8,        125P    359
10.8,-3.14159265358979,-3.14159265358979,-3.14159265358979,          125P    360
-1.5707963267949,-1.5707963267949,0.,0.,1.5707963267949,             125P    361
1.5707963267949,3.14159265358979,3.14159265358979,                   125P    362
3.14159265358979,1.,1.,0.707106781186548,0.707106781186548,1.,       125P    363
1.,0.707106781186548,0.707106781186548,1.,1.,0.707106781186548,      125P    364
0.707106781186548,1.,1.,0.707106781186548,0.707106781186548,1.,      125P    365
1.,-2.117,96.6000000000003,17.9999999999999,-2.117,                  125P    366
84.6000000000003,17.9999999999999,-2.117,96.6000000000003,           125P    367
15.8829999999999,-2.117,84.6000000000003,15.8829999999999,           125P    368
3.67394039744206D-15,96.6000000000003,15.8829999999999,              125P    369
3.67394039744206D-15,84.6000000000003,15.8829999999999,2.117,        125P    370
96.6000000000003,15.8829999999999,2.117,84.6000000000003,            125P    371
15.8829999999999,2.117,96.6000000000003,17.9999999999999,2.117,      125P    372
84.6000000000003,17.9999999999999,2.117,96.6000000000003,            125P    373
20.1169999999999,2.117,84.6000000000003,20.1169999999999,            125P    374
3.67394039744206D-15,96.6000000000003,20.1169999999999,              125P    375
3.67394039744206D-15,84.6000000000003,20.1169999999999,-2.117,       125P    376
96.6000000000003,20.1169999999999,-2.117,84.6000000000003,           125P    377
20.1169999999999,-2.117,96.6000000000003,17.9999999999999,           125P    378
-2.117,84.6000000000003,17.9999999999999,5.99999999999999,10.8,      125P    379
-3.14159265358979,3.14159265358979;                                  125P    380
128,1,8,1,2,0,1,0,0,1,5.99999999999999,5.99999999999999,10.8,        127P    381
10.8,-3.14159265358979,-3.14159265358979,-3.14159265358979,          127P    382
-1.5707963267949,-1.5707963267949,0.,0.,1.5707963267949,             127P    383
1.5707963267949,3.14159265358979,3.14159265358979,                   127P    384
3.14159265358979,1.,1.,0.707106781186548,0.707106781186548,1.,       127P    385
1.,0.707106781186548,0.707106781186548,1.,1.,0.707106781186548,      127P    386
0.707106781186548,1.,1.,0.707106781186548,0.707106781186548,1.,      127P    387
1.,24.9222621135332,96.6000000000003,4.83337577981157,               127P    388
24.9222621135332,84.6000000000003,4.83337577981158,                  127P    389
23.0888863337215,96.6000000000003,3.77487577981158,                  127P    390
23.0888863337215,84.6000000000003,3.77487577981158,                  127P    391
24.1473863337215,96.6000000000003,1.94149999999992,                  127P    392
24.1473863337215,84.6000000000003,1.94149999999992,                  127P    393
25.2058863337215,96.6000000000003,0.108124220188263,                 127P    394
25.2058863337215,84.6000000000003,0.108124220188265,                 127P    395
27.0392621135332,96.6000000000003,1.16662422018826,                  127P    396
27.0392621135332,84.6000000000003,1.16662422018826,                  127P    397
28.8726378933448,96.6000000000003,2.22512422018826,                  127P    398
28.8726378933448,84.6000000000003,2.22512422018826,                  127P    399
27.8141378933448,96.6000000000003,4.05849999999991,                  127P    400
27.8141378933448,84.6000000000003,4.05849999999992,                  127P    401
26.7556378933448,96.6000000000003,5.89187577981157,                  127P    402
26.7556378933448,84.6000000000003,5.89187577981157,                  127P    403
24.9222621135332,96.6000000000003,4.83337577981157,                  127P    404
24.9222621135332,84.6000000000003,4.83337577981158,                  127P    405
5.99999999999999,10.8,-3.14159265358979,3.14159265358979;            127P    406
128,1,8,1,2,0,1,0,0,1,5.99999999999999,5.99999999999999,10.8,        129P    407
10.8,-3.14159265358979,-3.14159265358979,-3.14159265358979,          129P    408
-1.5707963267949,-1.5707963267949,0.,0.,1.5707963267949,             129P    409
1.5707963267949,3.14159265358979,3.14159265358979,                   129P    410
3.14159265358979,1.,1.,0.707106781186548,0.707106781186548,1.,       129P    411
1.,0.707106781186548,0.707106781186548,1.,1.,0.707106781186548,      129P    412
0.707106781186548,1.,1.,0.707106781186548,0.707106781186548,1.,      129P    413
1.,27.0392621135332,96.6000000000003,-25.1666242201884,              129P    414
27.0392621135332,84.6000000000003,-25.1666242201884,                 129P    415
25.2058863337215,96.6000000000003,-24.1081242201884,                 129P    416
25.2058863337215,84.6000000000003,-24.1081242201884,                 129P    417
24.1473863337215,96.6000000000003,-25.9415000000001,                 129P    418
24.1473863337215,84.6000000000003,-25.9415000000001,                 129P    419
23.0888863337215,96.6000000000003,-27.7748757798117,                 129P    420
23.0888863337215,84.6000000000003,-27.7748757798117,                 129P    421
24.9222621135332,96.6000000000003,-28.8333757798117,                 129P    422
24.9222621135332,84.6000000000003,-28.8333757798117,                 129P    423
26.7556378933448,96.6000000000003,-29.8918757798117,                 129P    424
26.7556378933448,84.6000000000003,-29.8918757798117,                 129P    425
27.8141378933448,96.6000000000003,-28.0585000000001,                 129P    426
27.8141378933448,84.6000000000003,-28.0585000000001,                 129P    427
28.8726378933448,96.6000000000003,-26.2251242201884,                 129P    428
28.8726378933448,84.6000000000003,-26.2251242201884,                 129P    429
27.0392621135332,96.6000000000003,-25.1666242201884,                 129P    430
27.0392621135332,84.6000000000003,-25.1666242201884,                 129P    431
5.99999999999999,10.8,-3.14159265358979,3.14159265358979;            129P    432
128,1,8,1,2,0,1,0,0,1,5.99999999999999,5.99999999999999,10.8,        131P    433
10.8,-3.14159265358979,-3.14159265358979,-3.14159265358979,          131P    434
-1.5707963267949,-1.5707963267949,0.,0.,1.5707963267949,             131P    435
1.5707963267949,3.14159265358979,3.14159265358979,                   131P    436
3.14159265358979,1.,1.,0.707106781186548,0.707106781186548,1.,       131P    437
1.,0.707106781186548,0.707106781186548,1.,1.,0.707106781186548,      131P    438
0.707106781186548,1.,1.,0.707106781186548,0.707106781186548,1.,      131P    439
1.,2.117,96.6000000000003,-42.0000000000001,2.117,                   131P    440
84.6000000000003,-42.0000000000001,2.117,96.6000000000003,           131P    441
-39.8830000000001,2.117,84.6000000000003,-39.8830000000001,          131P    442
-3.99996390149776D-31,96.6000000000003,-39.8830000000001,            131P    443
-3.99996390149776D-31,84.6000000000003,-39.8830000000001,-2.117,     131P    444
96.6000000000003,-39.8830000000001,-2.117,84.6000000000003,          131P    445
-39.8830000000001,-2.117,96.6000000000003,-42.0000000000001,         131P    446
-2.117,84.6000000000003,-42.0000000000001,-2.117,                    131P    447
96.6000000000003,-44.1170000000001,-2.117,84.6000000000003,          131P    448
-44.1170000000001,-3.99996390149776D-31,96.6000000000003,            131P    449
-44.1170000000001,-3.99996390149776D-31,84.6000000000003,            131P    450
-44.1170000000001,2.117,96.6000000000003,-44.1170000000001,          131P    451
2.117,84.6000000000003,-44.1170000000001,2.117,96.6000000000003,     131P    452
-42.0000000000001,2.117,84.6000000000003,-42.0000000000001,          131P    453
5.99999999999999,10.8,-3.14159265358979,3.14159265358979;            131P    454
128,1,1,1,1,0,0,1,0,0,-4.001,-4.001,4.001,4.001,-4.001,-4.001,       133P    455
4.001,4.001,1.,1.,1.,1.,40.0100000000055,96.6000000000003,           133P    456
-52.0099999999999,-40.0099999999945,96.6000000000003,                133P    457
-52.0099999999999,40.0100000000055,96.6000000000003,                 133P    458
28.0100000000002,-40.0099999999945,96.6000000000003,                 133P    459
28.0100000000002,-4.001,4.001,-4.001,4.001;                          133P    460
128,1,8,1,2,0,1,0,0,1,-0.1,-0.1,0.5,0.5,-3.14159265358979,           135P    461
-3.14159265358979,-3.14159265358979,-1.5707963267949,                135P    462
-1.5707963267949,0.,0.,1.5707963267949,1.5707963267949,              135P    463
3.14159265358979,3.14159265358979,3.14159265358979,1.,1.,            135P    464
0.707106781186548,0.707106781186548,1.,1.,0.707106781186548,         135P    465
0.707106781186548,1.,1.,0.707106781186548,0.707106781186548,1.,      135P    466
1.,0.707106781186548,0.707106781186548,1.,1.,20.0000000000055,       135P    467
96.6000000000003,-11.9999999999999,20.0000000000055,                 135P    468
84.6000000000003,-11.9999999999998,20.0000000000055,                 135P    469
96.6000000000003,8.00000000000015,20.0000000000055,                  135P    470
84.6000000000003,8.00000000000015,5.48894263374671D-12,              135P    471
96.6000000000003,8.00000000000015,5.48894263374671D-12,              135P    472
84.6000000000003,8.00000000000015,-19.9999999999945,                 135P    473
96.6000000000003,8.00000000000015,-19.9999999999945,                 135P    474
84.6000000000003,8.00000000000015,-19.9999999999945,                 135P    475
96.6000000000003,-11.9999999999999,-19.9999999999945,                135P    476
84.6000000000003,-11.9999999999998,-19.9999999999945,                135P    477
96.6000000000003,-31.9999999999998,-19.9999999999945,                135P    478
84.6000000000003,-31.9999999999998,5.48894263374671D-12,             135P    479
96.6000000000003,-31.9999999999999,5.48894263374671D-12,             135P    480
84.6000000000003,-31.9999999999998,20.0000000000055,                 135P    481
96.6000000000003,-31.9999999999998,20.0000000000055,                 135P    482
84.6000000000003,-31.9999999999998,20.0000000000055,                 135P    483
96.6000000000003,-11.9999999999999,20.0000000000055,                 135P    484
84.6000000000003,-11.9999999999998,-0.1,0.5,-3.14159265358979,       135P    485
3.14159265358979;                                                    135P    486
128,1,8,1,2,0,1,0,0,1,-0.0499999999999999,-0.0499999999999999,       137P    487
0.25,0.25,-3.14159265358979,-3.14159265358979,-3.14159265358979,     137P    488
-1.5707963267949,-1.5707963267949,0.,0.,1.5707963267949,             137P    489
1.5707963267949,3.14159265358979,3.14159265358979,                   137P    490
3.14159265358979,1.,1.,0.707106781186548,0.707106781186548,1.,       137P    491
1.,0.707106781186548,0.707106781186548,1.,1.,0.707106781186548,      137P    492
0.707106781186548,1.,1.,0.707106781186548,0.707106781186548,1.,      137P    493
1.,40.0000000000055,84.6000000000003,-11.9999999999998,              137P    494
40.0000000000055,96.6000000000003,-11.9999999999999,                 137P    495
40.0000000000055,84.6000000000003,28.0000000000001,                  137P    496
40.0000000000055,96.6000000000003,28.0000000000001,                  137P    497
5.48894263374671D-12,84.6000000000003,28.0000000000002,              137P    498
5.48894263374671D-12,96.6000000000003,28.0000000000001,              137P    499
-39.9999999999945,84.6000000000003,28.0000000000001,                 137P    500
-39.9999999999945,96.6000000000003,28.0000000000001,                 137P    501
-39.9999999999945,84.6000000000003,-11.9999999999998,                137P    502
-39.9999999999945,96.6000000000003,-11.9999999999999,                137P    503
-39.9999999999945,84.6000000000003,-51.9999999999998,                137P    504
-39.9999999999945,96.6000000000003,-51.9999999999998,                137P    505
5.48894263374671D-12,84.6000000000003,-51.9999999999999,             137P    506
5.48894263374671D-12,96.6000000000003,-51.9999999999999,             137P    507
40.0000000000055,84.6000000000003,-51.9999999999998,                 137P    508
40.0000000000055,96.6000000000003,-51.9999999999998,                 137P    509
40.0000000000055,84.6000000000003,-11.9999999999998,                 137P    510
40.0000000000055,96.6000000000003,-11.9999999999999,                 137P    511
-0.0499999999999999,0.25,-3.14159265358979,3.14159265358979;         137P    512
128,1,1,1,1,0,0,1,0,0,-4.001,-4.001,4.001,4.001,-4.001,-4.001,       139P    513
4.001,4.001,1.,1.,1.,1.,-40.0099999999945,84.6000000000003,          139P    514
-52.0099999999999,40.0100000000055,84.6000000000003,                 139P    515
-52.0099999999999,-40.0099999999945,84.6000000000003,                139P    516
28.0100000000002,40.0100000000055,84.6000000000003,                  139P    517
28.0100000000002,-4.001,4.001,-4.001,4.001;                          139P    518
502,16,-24.9222621135332,96.6000000000003,-28.8333757798117,         141P    519
-24.9222621135332,84.6000000000003,-28.8333757798117,                141P    520
-27.0392621135332,96.6000000000003,1.16662422018828,                 141P    521
-27.0392621135332,84.6000000000003,1.16662422018828,-2.117,          141P    522
96.6000000000003,17.9999999999999,-2.117,84.6000000000003,           141P    523
17.9999999999999,24.9222621135332,96.6000000000003,                  141P    524
4.83337577981157,24.9222621135332,84.6000000000003,                  141P    525
4.83337577981158,27.0392621135332,96.6000000000003,                  141P    526
-25.1666242201884,27.0392621135332,84.6000000000003,                 141P    527
-25.1666242201884,2.117,96.6000000000003,-42.0000000000001,          141P    528
2.117,84.6000000000003,-42.0000000000001,40.0000000000055,           141P    529
96.6000000000003,-11.9999999999999,20.0000000000055,                 141P    530
96.6000000000003,-11.9999999999999,20.0000000000055,                 141P    531
84.6000000000003,-11.9999999999998,40.0000000000055,                 141P    532
84.6000000000003,-11.9999999999999;                                  141P    533
504,24,73,141,1,141,1,75,141,1,141,2,77,141,2,141,2,79,141,3,        143P    534
141,3,81,141,3,141,4,83,141,4,141,4,85,141,5,141,5,87,141,5,141,     143P    535
6,89,141,6,141,6,91,141,7,141,7,93,141,7,141,8,95,141,8,141,8,       143P    536
97,141,9,141,9,99,141,9,141,10,101,141,10,141,10,103,141,11,141,     143P    537
11,105,141,11,141,12,107,141,12,141,12,109,141,13,141,13,111,        143P    538
141,14,141,14,113,141,15,141,15,115,141,15,141,14,117,141,16,        143P    539
141,16,119,141,16,141,13;                                            143P    540
406,1,15HV bearing mount;                                            145P    541
314,62.7450980392157,62.7450980392157,62.7450980392157,13HSteel      147P    542
- Satin;                                                             147P    543
S      1G      2D    148P    543                                        T      1
