                                                                        S      1
,,14HV motor spacer,5HJ3BMS,7Hunknown,7Hunknown,32,38,7,99,15,,1.,2,2HMMG      1
,1,0.08,15H20230117.224554,0.01,10000.,7Hunknown,7Hunknown,11,0,;       G      2
     186       1                                                00000000D      1
     186            -199       1       0                               0D      2
     514       2                                                00010000D      3
     514                       2       1                               0D      4
     510       4                                                00010000D      5
     510            -199       1       1                               0D      6
     510       5                                                00010000D      7
     510            -199       1       1                               0D      8
     510       6                                                00010000D      9
     510            -199       1       1                               0D     10
     510       7                                                00010000D     11
     510            -199       1       1                               0D     12
     510       8                                                00010000D     13
     510            -199       1       1                               0D     14
     510       9                                                00010000D     15
     510            -199       1       1                               0D     16
     510      10                                                00010000D     17
     510            -199       1       1                               0D     18
     510      11                                                00010000D     19
     510            -199       1       1                               0D     20
     510      12                                                00010000D     21
     510            -199       1       1                               0D     22
     510      13                                                00010000D     23
     510            -199       1       1                               0D     24
     510      14                                                00010000D     25
     510            -199       1       1                               0D     26
     510      15                                                00010000D     27
     510            -199       1       1                               0D     28
     510      16                                                00010000D     29
     510            -199       1       1                               0D     30
     510      17                                                00010000D     31
     510            -199       1       1                               0D     32
     510      18                                                00010000D     33
     510            -199       1       1                               0D     34
     508      19                                                00010000D     35
     508                       1       1                               0D     36
     508      20                                                00010000D     37
     508                       1       1                               0D     38
     508      21                                                00010000D     39
     508                       2       1                               0D     40
     508      23                                                00010000D     41
     508                       1       1                               0D     42
     508      24                                                00010000D     43
     508                       1       1                               0D     44
     508      25                                                00010000D     45
     508                       1       1                               0D     46
     508      26                                                00010000D     47
     508                       1       1                               0D     48
     508      27                                                00010000D     49
     508                       1       1                               0D     50
     508      28                                                00010000D     51
     508                       1       1                               0D     52
     508      29                                                00010000D     53
     508                       1       1                               0D     54
     508      30                                                00010000D     55
     508                       1       1                               0D     56
     508      31                                                00010000D     57
     508                       1       1                               0D     58
     508      32                                                00010000D     59
     508                       1       1                               0D     60
     508      33                                                00010000D     61
     508                       1       1                               0D     62
     508      34                                                00010000D     63
     508                       2       1                               0D     64
     508      36                                                00010000D     65
     508                       1       1                               0D     66
     508      37                                                00010000D     67
     508                       1       1                               0D     68
     508      38                                                00010000D     69
     508                       1       1                               0D     70
     508      39                                                00010000D     71
     508                       1       1                               0D     72
     508      40                                                00010000D     73
     508                       1       1                               0D     74
     508      41                                                00010000D     75
     508                       1       1                               0D     76
     508      42                                                00010000D     77
     508                       1       1                               0D     78
     508      43                                                00010000D     79
     508                       1       1                               0D     80
     508      44                                                00010000D     81
     508                       1       1                               0D     82
     508      45                                                00010000D     83
     508                       1       1                               0D     84
     126      46                                                00010000D     85
     126       0               5       0                               0D     86
     126      51                                                00010000D     87
     126       0               2       0                               0D     88
     126      53                                                00010000D     89
     126       0               5       0                               0D     90
     126      58                                                00010000D     91
     126       0               2       0                               0D     92
     126      60                                                00010000D     93
     126       0               3       0                               0D     94
     126      63                                                00010000D     95
     126       0               3       0                               0D     96
     126      66                                                00010000D     97
     126       0               3       0                               0D     98
     126      69                                                00010000D     99
     126       0               3       0                               0D    100
     126      72                                                00010000D    101
     126       0               5       0                               0D    102
     126      77                                                00010000D    103
     126       0               3       0                               0D    104
     126      80                                                00010000D    105
     126       0               5       0                               0D    106
     126      85                                                00010000D    107
     126       0               2       0                               0D    108
     126      87                                                00010000D    109
     126       0               5       0                               0D    110
     126      92                                                00010000D    111
     126       0               9       0                               0D    112
     126     101                                                00010000D    113
     126       0              11       0                               0D    114
     126     112                                                00010000D    115
     126       0              11       0                               0D    116
     126     123                                                00010000D    117
     126       0              11       0                               0D    118
     126     134                                                00010000D    119
     126       0               9       0                               0D    120
     126     143                                                00010000D    121
     126       0               3       0                               0D    122
     126     146                                                00010000D    123
     126       0               5       0                               0D    124
     126     151                                                00010000D    125
     126       0               2       0                               0D    126
     126     153                                                00010000D    127
     126       0               3       0                               0D    128
     126     156                                                00010000D    129
     126       0               2       0                               0D    130
     126     158                                                00010000D    131
     126       0               5       0                               0D    132
     126     163                                                00010000D    133
     126       0               3       0                               0D    134
     126     166                                                00010000D    135
     126       0               3       0                               0D    136
     126     169                                                00010000D    137
     126       0               3       0                               0D    138
     126     172                                                00010000D    139
     126       0               5       0                               0D    140
     126     177                                                00010000D    141
     126       0               3       0                               0D    142
     126     180                                                00010000D    143
     126       0               9       0                               0D    144
     126     189                                                00010000D    145
     126       0              11       0                               0D    146
     126     200                                                00010000D    147
     126       0              11       0                               0D    148
     126     211                                                00010000D    149
     126       0              11       0                               0D    150
     126     222                                                00010000D    151
     126       0               9       0                               0D    152
     126     231                                                00010000D    153
     126       0               3       0                               0D    154
     126     234                                                00010000D    155
     126       0               3       0                               0D    156
     126     237                                                00010000D    157
     126       0               4       0                               0D    158
     126     241                                                00010000D    159
     126       0               4       0                               0D    160
     126     245                                                00010000D    161
     126       0               3       0                               0D    162
     128     248                                                00010000D    163
     128       0    -199       8       0                               0D    164
     128     256                                                00010000D    165
     128       0    -199       4       0                               0D    166
     128     260                                                00010000D    167
     128       0    -199       4       0                               0D    168
     128     264                                                00010000D    169
     128       0    -199       8       0                               0D    170
     128     272                                                00010000D    171
     128       0    -199       4       0                               0D    172
     128     276                                                00010000D    173
     128       0    -199       8       0                               0D    174
     128     284                                                00010000D    175
     128       0    -199       5       0                               0D    176
     128     289                                                00010000D    177
     128       0    -199       8       0                               0D    178
     128     297                                                00010000D    179
     128       0    -199       4       0                               0D    180
     128     301                                                00010000D    181
     128       0    -199       4       0                               0D    182
     128     305                                                00010000D    183
     128       0    -199      15       0                               0D    184
     128     320                                                00010000D    185
     128       0    -199      18       0                               0D    186
     128     338                                                00010000D    187
     128       0    -199      21       0                               0D    188
     128     359                                                00010000D    189
     128       0    -199      18       0                               0D    190
     128     377                                                00010000D    191
     128       0    -199      15       0                               0D    192
     502     392                                                00010000D    193
     502                      13       1                               0D    194
     504     405                                                00010001D    195
     504                      11       1                               0D    196
     406     416                                                00000000D    197
     406                       1      15                               0D    198
     314     417                                                00000200D    199
     314                       2       0                               0D    200
186,3,1,0,0,1,197;                                                     1P      1
514,15,5,1,7,1,9,1,11,1,13,1,15,1,17,1,19,1,21,1,23,1,25,1,27,1,       3P      2
29,1,31,1,33,1;                                                        3P      3
510,163,1,1,35;                                                        5P      4
510,165,1,1,37;                                                        7P      5
510,167,6,1,39,41,43,45,47,49;                                         9P      6
510,169,1,1,51;                                                       11P      7
510,171,1,1,53;                                                       13P      8
510,173,1,1,55;                                                       15P      9
510,175,1,1,57;                                                       17P     10
510,177,1,1,59;                                                       19P     11
510,179,1,1,61;                                                       21P     12
510,181,6,1,63,65,67,69,71,73;                                        23P     13
510,183,1,1,75;                                                       25P     14
510,185,1,1,77;                                                       27P     15
510,187,1,1,79;                                                       29P     16
510,189,1,1,81;                                                       31P     17
510,191,1,1,83;                                                       33P     18
508,4,0,195,1,1,0,0,195,2,1,0,0,195,3,1,0,0,195,4,1,0;                35P     19
508,4,0,195,4,0,0,0,195,5,0,0,0,195,6,0,0,0,195,7,0,0;                37P     20
508,8,0,195,3,0,0,0,195,8,0,0,0,195,9,0,0,0,195,10,0,0,0,195,11,      39P     21
0,0,0,195,12,0,0,0,195,13,0,0,0,195,5,1,0;                            39P     22
508,1,0,195,14,0,0;                                                   41P     23
508,1,0,195,15,0,0;                                                   43P     24
508,1,0,195,16,0,0;                                                   45P     25
508,1,0,195,17,0,0;                                                   47P     26
508,1,0,195,18,0,0;                                                   49P     27
508,4,0,195,13,1,0,0,195,19,1,0,0,195,20,1,0,0,195,6,1,0;             51P     28
508,4,0,195,19,0,0,0,195,12,1,0,0,195,21,0,0,0,195,22,0,0;            53P     29
508,4,0,195,11,1,0,0,195,23,1,0,0,195,24,1,0,0,195,21,1,0;            55P     30
508,4,0,195,23,0,0,0,195,10,1,0,0,195,25,0,0,0,195,26,0,0;            57P     31
508,4,0,195,9,1,0,0,195,27,1,0,0,195,28,1,0,0,195,25,1,0;             59P     32
508,4,0,195,2,0,0,0,195,29,1,0,0,195,27,0,0,0,195,8,1,0;              61P     33
508,8,0,195,1,0,0,0,195,7,1,0,0,195,20,0,0,0,195,22,1,0,0,195,        63P     34
24,0,0,0,195,26,1,0,0,195,28,0,0,0,195,29,0,0;                        63P     35
508,1,0,195,30,0,0;                                                   65P     36
508,1,0,195,31,0,0;                                                   67P     37
508,1,0,195,32,0,0;                                                   69P     38
508,1,0,195,33,0,0;                                                   71P     39
508,1,0,195,34,0,0;                                                   73P     40
508,4,0,195,34,1,0,0,195,35,1,0,0,195,18,1,0,0,195,35,0,0;            75P     41
508,4,0,195,33,1,0,0,195,36,1,0,0,195,17,1,0,0,195,36,0,0;            77P     42
508,4,0,195,32,1,0,0,195,37,1,0,0,195,16,1,0,0,195,37,0,0;            79P     43
508,4,0,195,31,1,0,0,195,38,1,0,0,195,15,1,0,0,195,38,0,0;            81P     44
508,4,0,195,30,1,0,0,195,39,1,0,0,195,14,1,0,0,195,39,0,0;            83P     45
126,2,2,0,0,0,0,-0.785398163397448,-0.785398163397448,                85P     46
-0.785398163397448,0.785398163397448,0.785398163397448,               85P     47
0.785398163397448,1.,0.70710678118655,1.,-55.,130.6,                  85P     48
-62.0000000000001,-55.,130.6,-67.0000000000001,-50.,130.6,            85P     49
-67.0000000000001,-0.785398163397448,0.785398163397448,0.,0.,0.;      85P     50
126,1,1,0,0,1,0,-1.9,-1.9,0.,0.,1.,1.,-50.,130.6,                     87P     51
-67.0000000000001,-50.,111.6,-67.0000000000001,-1.9,0.,0.,0.,0.;      87P     52
126,2,2,0,0,0,0,-0.785398163397448,-0.785398163397448,                89P     53
-0.785398163397448,0.785398163397448,0.785398163397448,               89P     54
0.785398163397448,1.,0.70710678118655,1.,-50.,111.6,                  89P     55
-67.0000000000001,-55.,111.6,-67.0000000000001,-55.,111.6,            89P     56
-62.0000000000001,-0.785398163397448,0.785398163397448,0.,0.,0.;      89P     57
126,1,1,0,0,1,0,0.,0.,1.9,1.9,1.,1.,-55.,111.6,                       91P     58
-62.0000000000001,-55.,130.6,-62.0000000000001,0.,1.9,0.,0.,0.;       91P     59
126,1,1,0,0,1,0,-10.25,-10.25,-0.25,-0.25,1.,1.,-55.,111.6,           93P     60
37.9999999999999,-55.,111.6,-62.0000000000001,-10.25,-0.25,0.,        93P     61
0.,0.;                                                                93P     62
126,1,1,0,0,1,0,-1.9,-1.9,1.77635683940025D-15,                       95P     63
1.77635683940025D-15,1.,1.,-55.,130.6,37.9999999999999,-55.,          95P     64
111.6,37.9999999999999,-1.9,1.77635683940025D-15,0.,0.,0.;            95P     65
126,1,1,0,0,1,0,-10.25,-10.25,-0.25,-0.25,1.,1.,-55.,130.6,           97P     66
-62.0000000000001,-55.,130.6,37.9999999999999,-10.25,-0.25,0.,        97P     67
0.,0.;                                                                97P     68
126,1,1,0,0,1,0,0.25,0.25,10.25,10.25,1.,1.,50.,111.6,                99P     69
-67.0000000000001,-50.,111.6,-67.0000000000001,0.25,10.25,0.,0.,      99P     70
0.;                                                                   99P     71
126,2,2,0,0,0,0,-0.78539816339745,-0.78539816339745,                 101P     72
-0.78539816339745,0.785398163397448,0.785398163397448,               101P     73
0.785398163397448,1.,0.707106781186544,1.,55.,111.6,                 101P     74
-62.0000000000001,55.,111.6,-67.0000000000001,50.,111.6,             101P     75
-67.0000000000001,-0.78539816339745,0.785398163397448,0.,0.,0.;      101P     76
126,1,1,0,0,1,0,0.25,0.25,10.25,10.25,1.,1.,55.,111.6,               103P     77
37.9999999999999,55.,111.6,-62.0000000000001,0.25,10.25,0.,0.,       103P     78
0.;                                                                  103P     79
126,2,2,0,0,0,0,-0.785398163397448,-0.785398163397448,               105P     80
-0.785398163397448,0.785398163397448,0.785398163397448,              105P     81
0.785398163397448,1.,0.70710678118655,1.,50.,111.6,                  105P     82
42.9999999999999,55.,111.6,42.9999999999999,55.,111.6,               105P     83
37.9999999999999,-0.785398163397448,0.785398163397448,0.,0.,0.;      105P     84
126,1,1,0,0,1,0,0.25,0.25,10.25,10.25,1.,1.,-50.,111.6,              107P     85
42.9999999999999,50.,111.6,42.9999999999999,0.25,10.25,0.,0.,0.;     107P     86
126,2,2,0,0,0,0,-0.785398163397448,-0.785398163397448,               109P     87
-0.785398163397448,0.785398163397448,0.785398163397448,              109P     88
0.785398163397448,1.,0.70710678118655,1.,-55.,111.6,                 109P     89
37.9999999999999,-55.,111.6,42.9999999999999,-50.,111.6,             109P     90
42.9999999999999,-0.785398163397448,0.785398163397448,0.,0.,0.;      109P     91
126,8,2,0,1,0,0,-3.14159265358979,-3.14159265358979,                 111P     92
-3.14159265358979,-1.5707963267949,-1.5707963267949,0.,0.,           111P     93
1.5707963267949,1.5707963267949,3.14159265358979,                    111P     94
3.14159265358979,3.14159265358979,1.,0.707106781186549,1.,           111P     95
0.707106781186549,1.,0.707106781186549,1.,0.707106781186549,1.,      111P     96
48.45,111.6,32.45,48.45,111.6,36.45,44.45,111.6,36.45,40.45,         111P     97
111.6,36.45,40.45,111.6,32.45,40.45,111.6,28.45,44.45,111.6,         111P     98
28.45,48.45,111.6,28.45,48.45,111.6,32.45,-3.14159265358979,         111P     99
3.14159265358979,0.,0.,0.;                                           111P    100
126,8,2,0,1,0,0,-3.14159265358979,-3.14159265358979,                 113P    101
-3.14159265358979,-1.5707963267949,-1.5707963267949,0.,0.,           113P    102
1.5707963267949,1.5707963267949,3.14159265358979,                    113P    103
3.14159265358979,3.14159265358979,1.,0.707106781186549,1.,           113P    104
0.707106781186549,1.,0.707106781186549,1.,0.707106781186549,1.,      113P    105
-40.45,111.6,-56.4500000000001,-40.45,111.6,-52.4500000000001,       113P    106
-44.45,111.6,-52.4500000000001,-48.45,111.6,-52.4500000000001,       113P    107
-48.45,111.6,-56.4500000000001,-48.45,111.6,-60.4500000000001,       113P    108
-44.45,111.6,-60.4500000000001,-40.45,111.6,-60.4500000000001,       113P    109
-40.45,111.6,-56.4500000000001,-3.14159265358979,                    113P    110
3.14159265358979,0.,0.,0.;                                           113P    111
126,8,2,0,1,0,0,-3.14159265358979,-3.14159265358979,                 115P    112
-3.14159265358979,-1.5707963267949,-1.5707963267949,0.,0.,           115P    113
1.5707963267949,1.5707963267949,3.14159265358979,                    115P    114
3.14159265358979,3.14159265358979,1.,0.707106781186547,1.,           115P    115
0.707106781186548,1.,0.707106781186548,1.,0.707106781186548,1.,      115P    116
35.,111.6,-12.0000000000001,35.,111.6,22.9999999999999,              115P    117
-2.14313189850787D-15,111.6,22.9999999999999,-35.,111.6,             115P    118
22.9999999999999,-35.,111.6,-12.0000000000001,-35.,111.6,            115P    119
-47.0000000000001,-2.14313189850787D-15,111.6,-47.0000000000001,     115P    120
35.,111.6,-47.0000000000001,35.,111.6,-12.0000000000001,             115P    121
-3.14159265358979,3.14159265358979,0.,0.,0.;                         115P    122
126,8,2,0,1,0,0,-3.14159265358979,-3.14159265358979,                 117P    123
-3.14159265358979,-1.5707963267949,-1.5707963267949,0.,0.,           117P    124
1.5707963267949,1.5707963267949,3.14159265358979,                    117P    125
3.14159265358979,3.14159265358979,1.,0.707106781186549,1.,           117P    126
0.707106781186549,1.,0.707106781186549,1.,0.707106781186549,1.,      117P    127
48.45,111.6,-56.4500000000001,48.45,111.6,-52.4500000000001,         117P    128
44.45,111.6,-52.4500000000001,40.45,111.6,-52.4500000000001,         117P    129
40.45,111.6,-56.4500000000001,40.45,111.6,-60.4500000000001,         117P    130
44.45,111.6,-60.4500000000001,48.45,111.6,-60.4500000000001,         117P    131
48.45,111.6,-56.4500000000001,-3.14159265358979,                     117P    132
3.14159265358979,0.,0.,0.;                                           117P    133
126,8,2,0,1,0,0,-3.14159265358979,-3.14159265358979,                 119P    134
-3.14159265358979,-1.5707963267949,-1.5707963267949,0.,0.,           119P    135
1.5707963267949,1.5707963267949,3.14159265358979,                    119P    136
3.14159265358979,3.14159265358979,1.,0.707106781186549,1.,           119P    137
0.707106781186549,1.,0.707106781186549,1.,0.707106781186549,1.,      119P    138
-40.45,111.6,32.45,-40.45,111.6,36.45,-44.45,111.6,36.45,-48.45,     119P    139
111.6,36.45,-48.45,111.6,32.45,-48.45,111.6,28.45,-44.45,111.6,      119P    140
28.45,-40.45,111.6,28.45,-40.45,111.6,32.45,-3.14159265358979,       119P    141
3.14159265358979,0.,0.,0.;                                           119P    142
126,1,1,0,0,1,0,1.77635683940025D-15,1.77635683940025D-15,1.9,       121P    143
1.9,1.,1.,-50.,111.6,42.9999999999999,-50.,130.6,                    121P    144
42.9999999999999,1.77635683940025D-15,1.9,0.,0.,0.;                  121P    145
126,2,2,0,0,0,0,-0.785398163397448,-0.785398163397448,               123P    146
-0.785398163397448,0.785398163397448,0.785398163397448,              123P    147
0.785398163397448,1.,0.70710678118655,1.,-50.,130.6,                 123P    148
42.9999999999999,-55.,130.6,42.9999999999999,-55.,130.6,             123P    149
37.9999999999999,-0.785398163397448,0.785398163397448,0.,0.,0.;      123P    150
126,1,1,0,0,1,0,-1.9,-1.9,0.,0.,1.,1.,50.,130.6,                     125P    151
42.9999999999999,50.,111.6,42.9999999999999,-1.9,0.,0.,0.,0.;        125P    152
126,1,1,0,0,1,0,-10.25,-10.25,-0.25,-0.25,1.,1.,-50.,130.6,          127P    153
42.9999999999999,50.,130.6,42.9999999999999,-10.25,-0.25,0.,0.,      127P    154
0.;                                                                  127P    155
126,1,1,0,0,1,0,0.,0.,1.9,1.9,1.,1.,55.,111.6,37.9999999999999,      129P    156
55.,130.6,37.9999999999999,0.,1.9,0.,0.,0.;                          129P    157
126,2,2,0,0,0,0,-0.78539816339745,-0.78539816339745,                 131P    158
-0.78539816339745,0.785398163397448,0.785398163397448,               131P    159
0.785398163397448,1.,0.707106781186544,1.,55.,130.6,                 131P    160
37.9999999999999,55.,130.6,42.9999999999999,50.,130.6,               131P    161
42.9999999999999,-0.78539816339745,0.785398163397448,0.,0.,0.;       131P    162
126,1,1,0,0,1,0,-1.9,-1.9,-1.77635683940025D-15,                     133P    163
-1.77635683940025D-15,1.,1.,55.,130.6,-62.0000000000001,55.,         133P    164
111.6,-62.0000000000001,-1.9,-1.77635683940025D-15,0.,0.,0.;         133P    165
126,1,1,0,0,1,0,-10.25,-10.25,-0.25,-0.25,1.,1.,55.,130.6,           135P    166
37.9999999999999,55.,130.6,-62.0000000000001,-10.25,-0.25,0.,0.,     135P    167
0.;                                                                  135P    168
126,1,1,0,0,1,0,-1.77635683940025D-15,-1.77635683940025D-15,1.9,     137P    169
1.9,1.,1.,50.,111.6,-67.0000000000001,50.,130.6,                     137P    170
-67.0000000000001,-1.77635683940025D-15,1.9,0.,0.,0.;                137P    171
126,2,2,0,0,0,0,-0.785398163397448,-0.785398163397448,               139P    172
-0.785398163397448,0.785398163397448,0.785398163397448,              139P    173
0.785398163397448,1.,0.70710678118655,1.,50.,130.6,                  139P    174
-67.0000000000001,55.,130.6,-67.0000000000001,55.,130.6,             139P    175
-62.0000000000001,-0.785398163397448,0.785398163397448,0.,0.,0.;     139P    176
126,1,1,0,0,1,0,0.25,0.25,10.25,10.25,1.,1.,-50.,130.6,              141P    177
-67.0000000000001,50.,130.6,-67.0000000000001,0.25,10.25,0.,0.,      141P    178
0.;                                                                  141P    179
126,8,2,0,1,0,0,-3.14159265358979,-3.14159265358979,                 143P    180
-3.14159265358979,-1.5707963267949,-1.5707963267949,0.,0.,           143P    181
1.5707963267949,1.5707963267949,3.14159265358979,                    143P    182
3.14159265358979,3.14159265358979,1.,0.707106781186549,1.,           143P    183
0.707106781186549,1.,0.707106781186549,1.,0.707106781186549,1.,      143P    184
48.45,130.6,32.45,48.45,130.6,28.45,44.45,130.6,28.45,40.45,         143P    185
130.6,28.45,40.45,130.6,32.45,40.45,130.6,36.45,44.45,130.6,         143P    186
36.45,48.45,130.6,36.45,48.45,130.6,32.45,-3.14159265358979,         143P    187
3.14159265358979,0.,0.,0.;                                           143P    188
126,8,2,0,1,0,0,-3.14159265358979,-3.14159265358979,                 145P    189
-3.14159265358979,-1.57079632679489,-1.57079632679489,               145P    190
2.22044604925031D-15,2.22044604925031D-15,1.5707963267949,           145P    191
1.5707963267949,3.1415926535898,3.1415926535898,3.1415926535898,     145P    192
1.,0.707106781186549,1.,0.707106781186549,1.,0.707106781186549,      145P    193
1.,0.707106781186549,1.,-40.45,130.6,-56.4500000000001,-40.45,       145P    194
130.6,-60.4500000000001,-44.45,130.6,-60.4500000000001,-48.45,       145P    195
130.6,-60.4500000000001,-48.45,130.6,-56.4500000000001,-48.45,       145P    196
130.6,-52.4500000000001,-44.45,130.6,-52.4500000000001,-40.45,       145P    197
130.6,-52.4500000000001,-40.45,130.6,-56.4500000000001,              145P    198
-3.14159265358979,3.1415926535898,0.,0.,0.;                          145P    199
126,8,2,0,1,0,0,-3.14159265358979,-3.14159265358979,                 147P    200
-3.14159265358979,-1.5707963267949,-1.5707963267949,0.,0.,           147P    201
1.5707963267949,1.5707963267949,3.14159265358979,                    147P    202
3.14159265358979,3.14159265358979,1.,0.707106781186547,1.,           147P    203
0.707106781186548,1.,0.707106781186548,1.,0.707106781186547,1.,      147P    204
35.,130.6,-12.0000000000001,35.,130.6,-47.0000000000001,             147P    205
-2.14313189850787D-15,130.6,-47.0000000000001,-35.,130.6,            147P    206
-47.0000000000001,-35.,130.6,-12.0000000000001,-35.,130.6,           147P    207
22.9999999999999,-2.14313189850787D-15,130.6,22.9999999999999,       147P    208
35.,130.6,22.9999999999999,35.,130.6,-12.0000000000001,              147P    209
-3.14159265358979,3.14159265358979,0.,0.,0.;                         147P    210
126,8,2,0,1,0,0,-3.14159265358979,-3.14159265358979,                 149P    211
-3.14159265358979,-1.57079632679489,-1.57079632679489,               149P    212
2.22044604925031D-15,2.22044604925031D-15,1.5707963267949,           149P    213
1.5707963267949,3.1415926535898,3.1415926535898,3.1415926535898,     149P    214
1.,0.707106781186549,1.,0.707106781186549,1.,0.707106781186549,      149P    215
1.,0.707106781186549,1.,48.45,130.6,-56.4500000000001,48.45,         149P    216
130.6,-60.4500000000001,44.45,130.6,-60.4500000000001,40.45,         149P    217
130.6,-60.4500000000001,40.45,130.6,-56.4500000000001,40.45,         149P    218
130.6,-52.4500000000001,44.45,130.6,-52.4500000000001,48.45,         149P    219
130.6,-52.4500000000001,48.45,130.6,-56.4500000000001,               149P    220
-3.14159265358979,3.1415926535898,0.,0.,0.;                          149P    221
126,8,2,0,1,0,0,-3.14159265358979,-3.14159265358979,                 151P    222
-3.14159265358979,-1.5707963267949,-1.5707963267949,0.,0.,           151P    223
1.5707963267949,1.5707963267949,3.14159265358979,                    151P    224
3.14159265358979,3.14159265358979,1.,0.707106781186549,1.,           151P    225
0.707106781186549,1.,0.707106781186549,1.,0.707106781186549,1.,      151P    226
-40.45,130.6,32.45,-40.45,130.6,28.45,-44.45,130.6,28.45,-48.45,     151P    227
130.6,28.45,-48.45,130.6,32.45,-48.45,130.6,36.45,-44.45,130.6,      151P    228
36.45,-40.45,130.6,36.45,-40.45,130.6,32.45,-3.14159265358979,       151P    229
3.14159265358979,0.,0.,0.;                                           151P    230
126,1,1,0,0,1,0,-4.75,-4.75,2.15598805548948D-16,                    153P    231
2.15598805548948D-16,1.,1.,-40.45,130.6,32.45,-40.45,111.6,          153P    232
32.45,-4.75,2.15598805548948D-16,0.,0.,0.;                           153P    233
126,1,1,0,0,1,0,-4.75,-4.75,2.15598805548948D-16,                    155P    234
2.15598805548948D-16,1.,1.,48.45,130.6,-56.4500000000001,48.45,      155P    235
111.6,-56.4500000000001,-4.75,2.15598805548948D-16,0.,0.,0.;         155P    236
126,1,1,0,0,1,0,-0.542857142857143,-0.542857142857143,               157P    237
2.15598805548948D-16,2.15598805548948D-16,1.,1.,35.,130.6,           157P    238
-12.0000000000001,35.,111.6,-12.0000000000001,                       157P    239
-0.542857142857143,2.15598805548948D-16,0.,0.,0.;                    157P    240
126,1,1,0,0,1,0,-4.75,-4.75,2.15598805548948D-16,                    159P    241
2.15598805548948D-16,1.,1.,-40.45,130.6,-56.4500000000001,           159P    242
-40.45,111.6,-56.4500000000001,-4.75,2.15598805548948D-16,0.,0.,     159P    243
0.;                                                                  159P    244
126,1,1,0,0,1,0,-4.75,-4.75,2.15598805548948D-16,                    161P    245
2.15598805548948D-16,1.,1.,48.45,130.6,32.45,48.45,111.6,32.45,      161P    246
-4.75,2.15598805548948D-16,0.,0.,0.;                                 161P    247
128,1,2,1,2,0,0,0,0,0,0.,0.,3.80000000000001,3.80000000000001,       163P    248
-0.785398163397448,-0.785398163397448,-0.785398163397448,            163P    249
0.785398163397448,0.785398163397448,0.785398163397448,1.,1.,         163P    250
0.707106781186548,0.707106781186548,1.,1.,-50.,130.6,                163P    251
-67.0000000000001,-50.,111.6,-67.0000000000001,-55.,130.6,           163P    252
-67.0000000000001,-55.,111.6,-67.0000000000001,-55.,130.6,           163P    253
-62.0000000000001,-55.,111.6,-62.0000000000001,0.,                   163P    254
3.80000000000001,-0.785398163397448,0.785398163397448;               163P    255
128,1,1,1,1,0,0,1,0,0,0.249,0.249,10.251,10.251,-0.001,-0.001,       165P    256
1.901,1.901,1.,1.,1.,1.,-55.,111.59,-62.0100000000001,-55.,          165P    257
111.59,38.0099999999999,-55.,130.61,-62.0100000000001,-55.,          165P    258
130.61,38.0099999999999,0.249,10.251,-0.001,1.901;                   165P    259
128,1,1,1,1,0,0,1,0,0,-5.501,-5.501,5.501,5.501,-5.501,-5.501,       167P    260
5.501,5.501,1.,1.,1.,1.,-55.01,111.6,-67.0100000000001,55.01,        167P    261
111.6,-67.0100000000001,-55.01,111.6,43.0099999999999,55.01,         167P    262
111.6,43.0099999999999,-5.501,5.501,-5.501,5.501;                    167P    263
128,1,2,1,2,0,0,0,0,0,-3.8,-3.8,3.99680288865056D-15,                169P    264
3.99680288865056D-15,-0.785398163397448,-0.785398163397448,          169P    265
-0.785398163397448,0.785398163397448,0.785398163397448,              169P    266
0.785398163397448,1.,1.,0.707106781186548,0.707106781186548,1.,      169P    267
1.,-50.,111.6,42.9999999999999,-50.,130.6,42.9999999999999,-55.,     169P    268
111.6,42.9999999999999,-55.,130.6,42.9999999999999,-55.,111.6,       169P    269
37.9999999999999,-55.,130.6,37.9999999999999,-3.8,                   169P    270
3.99680288865056D-15,-0.785398163397448,0.785398163397448;           169P    271
128,1,1,1,1,0,0,1,0,0,0.249,0.249,10.251,10.251,-0.001,-0.001,       171P    272
1.901,1.901,1.,1.,1.,1.,-50.01,111.59,42.9999999999999,50.01,        171P    273
111.59,42.9999999999999,-50.01,130.61,42.9999999999999,50.01,        171P    274
130.61,42.9999999999999,0.249,10.251,-0.001,1.901;                   171P    275
128,1,2,1,2,0,0,0,0,0,-3.8,-3.8,3.99680288865056D-15,                173P    276
3.99680288865056D-15,-0.78539816339745,-0.78539816339745,            173P    277
-0.78539816339745,0.785398163397448,0.785398163397448,               173P    278
0.785398163397448,1.,1.,0.707106781186547,0.707106781186547,1.,      173P    279
1.,55.,111.6,37.9999999999999,55.,130.6,37.9999999999999,55.,        173P    280
111.6,42.9999999999999,55.,130.6,42.9999999999999,50.,111.6,         173P    281
42.9999999999999,50.,130.6,42.9999999999999,-3.8,                    173P    282
3.99680288865056D-15,-0.78539816339745,0.785398163397448;            173P    283
128,1,1,1,1,0,0,1,0,0,0.248999999999999,0.248999999999999,           175P    284
10.251,10.251,-0.001,-0.001,1.901,1.901,1.,1.,1.,1.,55.,111.59,      175P    285
38.0099999999999,55.,111.59,-62.0100000000001,55.,130.61,            175P    286
38.0099999999999,55.,130.61,-62.0100000000001,0.248999999999999,     175P    287
10.251,-0.001,1.901;                                                 175P    288
128,1,2,1,2,0,0,0,0,0,-3.8,-3.8,3.99680288865056D-15,                177P    289
3.99680288865056D-15,-0.785398163397448,-0.785398163397448,          177P    290
-0.785398163397448,0.78539816339745,0.78539816339745,                177P    291
0.78539816339745,1.,1.,0.707106781186547,0.707106781186547,1.,       177P    292
1.,50.,111.6,-67.0000000000001,50.,130.6,-67.0000000000001,55.,      177P    293
111.6,-67.0000000000001,55.,130.6,-67.0000000000001,55.,111.6,       177P    294
-62.0000000000001,55.,130.6,-62.0000000000001,-3.8,                  177P    295
3.99680288865056D-15,-0.785398163397448,0.78539816339745;            177P    296
128,1,1,1,1,0,0,1,0,0,0.249,0.249,10.251,10.251,-0.001,-0.001,       179P    297
1.901,1.901,1.,1.,1.,1.,50.01,111.59,-67.0000000000001,-50.01,       179P    298
111.59,-67.0000000000001,50.01,130.61,-67.0000000000001,-50.01,      179P    299
130.61,-67.0000000000001,0.249,10.251,-0.001,1.901;                  179P    300
128,1,1,1,1,0,0,1,0,0,-5.501,-5.501,5.501,5.501,-5.501,-5.501,       181P    301
5.501,5.501,1.,1.,1.,1.,55.01,130.6,-67.0100000000001,-55.01,        181P    302
130.6,-67.0100000000001,55.01,130.6,43.0099999999999,-55.01,         181P    303
130.6,43.0099999999999,-5.501,5.501,-5.501,5.501;                    181P    304
128,1,8,1,2,0,1,0,0,1,-2.15598805548948D-16,                         183P    305
-2.15598805548948D-16,4.75,4.75,-3.14159265358979,                   183P    306
-3.14159265358979,-3.14159265358979,-1.5707963267949,                183P    307
-1.5707963267949,0.,0.,1.5707963267949,1.5707963267949,              183P    308
3.14159265358979,3.14159265358979,3.14159265358979,1.,1.,            183P    309
0.707106781186548,0.707106781186548,1.,1.,0.707106781186548,         183P    310
0.707106781186548,1.,1.,0.707106781186548,0.707106781186548,1.,      183P    311
1.,0.707106781186548,0.707106781186548,1.,1.,-40.45,111.6,32.45,     183P    312
-40.45,130.6,32.45,-40.45,111.6,28.45,-40.45,130.6,28.45,-44.45,     183P    313
111.6,28.45,-44.45,130.6,28.45,-48.45,111.6,28.45,-48.45,130.6,      183P    314
28.45,-48.45,111.6,32.45,-48.45,130.6,32.45,-48.45,111.6,36.45,      183P    315
-48.45,130.6,36.45,-44.45,111.6,36.45,-44.45,130.6,36.45,-40.45,     183P    316
111.6,36.45,-40.45,130.6,36.45,-40.45,111.6,32.45,-40.45,130.6,      183P    317
32.45,-2.15598805548948D-16,4.75,-3.14159265358979,                  183P    318
3.14159265358979;                                                    183P    319
128,1,8,1,2,0,1,0,0,1,-2.15598805548948D-16,                         185P    320
-2.15598805548948D-16,4.75,4.75,-3.14159265358979,                   185P    321
-3.14159265358979,-3.14159265358979,-1.5707963267949,                185P    322
-1.5707963267949,0.,0.,1.5707963267949,1.5707963267949,              185P    323
3.14159265358979,3.14159265358979,3.14159265358979,1.,1.,            185P    324
0.707106781186548,0.707106781186548,1.,1.,0.707106781186548,         185P    325
0.707106781186548,1.,1.,0.707106781186548,0.707106781186548,1.,      185P    326
1.,0.707106781186548,0.707106781186548,1.,1.,48.45,111.6,            185P    327
-56.4500000000001,48.45,130.6,-56.4500000000001,48.45,111.6,         185P    328
-60.4500000000001,48.45,130.6,-60.4500000000001,44.45,111.6,         185P    329
-60.4500000000001,44.45,130.6,-60.4500000000001,40.45,111.6,         185P    330
-60.4500000000001,40.45,130.6,-60.4500000000001,40.45,111.6,         185P    331
-56.4500000000001,40.45,130.6,-56.4500000000001,40.45,111.6,         185P    332
-52.4500000000001,40.45,130.6,-52.4500000000001,44.45,111.6,         185P    333
-52.4500000000001,44.45,130.6,-52.4500000000001,48.45,111.6,         185P    334
-52.4500000000001,48.45,130.6,-52.4500000000001,48.45,111.6,         185P    335
-56.4500000000001,48.45,130.6,-56.4500000000001,                     185P    336
-2.15598805548948D-16,4.75,-3.14159265358979,3.14159265358979;       185P    337
128,1,8,1,2,0,1,0,0,1,-2.15598805548948D-16,                         187P    338
-2.15598805548948D-16,0.542857142857143,0.542857142857143,           187P    339
-3.14159265358979,-3.14159265358979,-3.14159265358979,               187P    340
-1.5707963267949,-1.5707963267949,0.,0.,1.5707963267949,             187P    341
1.5707963267949,3.14159265358979,3.14159265358979,                   187P    342
3.14159265358979,1.,1.,0.707106781186548,0.707106781186548,1.,       187P    343
1.,0.707106781186548,0.707106781186548,1.,1.,0.707106781186548,      187P    344
0.707106781186548,1.,1.,0.707106781186548,0.707106781186548,1.,      187P    345
1.,35.,111.6,-12.0000000000001,35.,130.6,-12.0000000000001,35.,      187P    346
111.6,-47.0000000000001,35.,130.6,-47.0000000000001,                 187P    347
-3.99996390149776D-31,111.6,-47.0000000000001,                       187P    348
-3.99996390149776D-31,130.6,-47.0000000000001,-35.,111.6,            187P    349
-47.0000000000001,-35.,130.6,-47.0000000000001,-35.,111.6,           187P    350
-12.0000000000001,-35.,130.6,-12.0000000000001,-35.,111.6,           187P    351
22.9999999999999,-35.,130.6,22.9999999999999,                        187P    352
-3.99996390149776D-31,111.6,22.9999999999999,                        187P    353
-3.99996390149776D-31,130.6,22.9999999999999,35.,111.6,              187P    354
22.9999999999999,35.,130.6,22.9999999999999,35.,111.6,               187P    355
-12.0000000000001,35.,130.6,-12.0000000000001,                       187P    356
-2.15598805548948D-16,0.542857142857143,-3.14159265358979,           187P    357
3.14159265358979;                                                    187P    358
128,1,8,1,2,0,1,0,0,1,-2.15598805548948D-16,                         189P    359
-2.15598805548948D-16,4.75,4.75,-3.14159265358979,                   189P    360
-3.14159265358979,-3.14159265358979,-1.5707963267949,                189P    361
-1.5707963267949,0.,0.,1.5707963267949,1.5707963267949,              189P    362
3.14159265358979,3.14159265358979,3.14159265358979,1.,1.,            189P    363
0.707106781186548,0.707106781186548,1.,1.,0.707106781186548,         189P    364
0.707106781186548,1.,1.,0.707106781186548,0.707106781186548,1.,      189P    365
1.,0.707106781186548,0.707106781186548,1.,1.,-40.45,111.6,           189P    366
-56.4500000000001,-40.45,130.6,-56.4500000000001,-40.45,111.6,       189P    367
-60.4500000000001,-40.45,130.6,-60.4500000000001,-44.45,111.6,       189P    368
-60.4500000000001,-44.45,130.6,-60.4500000000001,-48.45,111.6,       189P    369
-60.4500000000001,-48.45,130.6,-60.4500000000001,-48.45,111.6,       189P    370
-56.4500000000001,-48.45,130.6,-56.4500000000001,-48.45,111.6,       189P    371
-52.4500000000001,-48.45,130.6,-52.4500000000001,-44.45,111.6,       189P    372
-52.4500000000001,-44.45,130.6,-52.4500000000001,-40.45,111.6,       189P    373
-52.4500000000001,-40.45,130.6,-52.4500000000001,-40.45,111.6,       189P    374
-56.4500000000001,-40.45,130.6,-56.4500000000001,                    189P    375
-2.15598805548948D-16,4.75,-3.14159265358979,3.14159265358979;       189P    376
128,1,8,1,2,0,1,0,0,1,-2.15598805548948D-16,                         191P    377
-2.15598805548948D-16,4.75,4.75,-3.14159265358979,                   191P    378
-3.14159265358979,-3.14159265358979,-1.5707963267949,                191P    379
-1.5707963267949,0.,0.,1.5707963267949,1.5707963267949,              191P    380
3.14159265358979,3.14159265358979,3.14159265358979,1.,1.,            191P    381
0.707106781186548,0.707106781186548,1.,1.,0.707106781186548,         191P    382
0.707106781186548,1.,1.,0.707106781186548,0.707106781186548,1.,      191P    383
1.,0.707106781186548,0.707106781186548,1.,1.,48.45,111.6,32.45,      191P    384
48.45,130.6,32.45,48.45,111.6,28.45,48.45,130.6,28.45,44.45,         191P    385
111.6,28.45,44.45,130.6,28.45,40.45,111.6,28.45,40.45,130.6,         191P    386
28.45,40.45,111.6,32.45,40.45,130.6,32.45,40.45,111.6,36.45,         191P    387
40.45,130.6,36.45,44.45,111.6,36.45,44.45,130.6,36.45,48.45,         191P    388
111.6,36.45,48.45,130.6,36.45,48.45,111.6,32.45,48.45,130.6,         191P    389
32.45,-2.15598805548948D-16,4.75,-3.14159265358979,                  191P    390
3.14159265358979;                                                    191P    391
502,26,-55.,130.6,-62.0000000000001,-50.,130.6,                      193P    392
-67.0000000000001,-50.,111.6,-67.0000000000001,-55.,111.6,           193P    393
-62.0000000000001,-55.,111.6,37.9999999999999,-55.,130.6,            193P    394
37.9999999999999,50.,111.6,-67.0000000000001,55.,111.6,              193P    395
-62.0000000000001,55.,111.6,37.9999999999999,50.,111.6,              193P    396
42.9999999999999,-50.,111.6,42.9999999999999,48.45,111.6,32.45,      193P    397
-40.45,111.6,-56.4500000000001,35.,111.6,-12.0000000000001,          193P    398
48.45,111.6,-56.4500000000001,-40.45,111.6,32.45,-50.,130.6,         193P    399
42.9999999999999,50.,130.6,42.9999999999999,55.,130.6,               193P    400
37.9999999999999,55.,130.6,-62.0000000000001,50.,130.6,              193P    401
-67.0000000000001,48.45,130.6,32.45,-40.45,130.6,                    193P    402
-56.4500000000001,35.,130.6,-12.0000000000001,48.45,130.6,           193P    403
-56.4500000000001,-40.45,130.6,32.45;                                193P    404
504,39,85,193,1,193,2,87,193,2,193,3,89,193,3,193,4,91,193,4,        195P    405
193,1,93,193,5,193,4,95,193,6,193,5,97,193,1,193,6,99,193,7,193,     195P    406
3,101,193,8,193,7,103,193,9,193,8,105,193,10,193,9,107,193,11,       195P    407
193,10,109,193,5,193,11,111,193,12,193,12,113,193,13,193,13,115,     195P    408
193,14,193,14,117,193,15,193,15,119,193,16,193,16,121,193,11,        195P    409
193,17,123,193,17,193,6,125,193,18,193,10,127,193,17,193,18,129,     195P    410
193,9,193,19,131,193,19,193,18,133,193,20,193,8,135,193,19,193,      195P    411
20,137,193,7,193,21,139,193,21,193,20,141,193,2,193,21,143,193,      195P    412
22,193,22,145,193,23,193,23,147,193,24,193,24,149,193,25,193,25,     195P    413
151,193,26,193,26,153,193,26,193,16,155,193,25,193,15,157,193,       195P    414
24,193,14,159,193,23,193,13,161,193,22,193,12;                       195P    415
406,1,14HV motor spacer;                                             197P    416
314,62.7450980392157,62.7450980392157,62.7450980392157,13HSteel      199P    417
- Satin;                                                             199P    418
S      1G      2D    200P    418                                        T      1
