                                                                        S      1
,,13HBearing Mount,4HJ3BM,7Hunknown,7Hunknown,32,38,7,99,15,,1.,2,2HMM, G      1
1,0.08,15H20230117.222930,0.01,10000.,7Hunknown,7Hunknown,11,0,;        G      2
     186       1                                                00000000D      1
     186            -131       1       0                               0D      2
     514       2                                                00010000D      3
     514                       1       1                               0D      4
     510       3                                                00010000D      5
     510            -131       1       1                               0D      6
     510       4                                                00010000D      7
     510            -131       1       1                               0D      8
     510       5                                                00010000D      9
     510            -131       1       1                               0D     10
     510       6                                                00010000D     11
     510            -131       1       1                               0D     12
     510       7                                                00010000D     13
     510            -131       1       1                               0D     14
     510       8                                                00010000D     15
     510            -131       1       1                               0D     16
     510       9                                                00010000D     17
     510            -131       1       1                               0D     18
     510      10                                                00010000D     19
     510            -131       1       1                               0D     20
     510      11                                                00010000D     21
     510            -131       1       1                               0D     22
     508      12                                                00010000D     23
     508                       1       1                               0D     24
     508      13                                                00010000D     25
     508                       1       1                               0D     26
     508      14                                                00010000D     27
     508                       1       1                               0D     28
     508      15                                                00010000D     29
     508                       1       1                               0D     30
     508      16                                                00010000D     31
     508                       1       1                               0D     32
     508      17                                                00010000D     33
     508                       1       1                               0D     34
     508      18                                                00010000D     35
     508                       1       1                               0D     36
     508      19                                                00010000D     37
     508                       1       1                               0D     38
     508      20                                                00010000D     39
     508                       1       1                               0D     40
     508      21                                                00010000D     41
     508                       1       1                               0D     42
     508      22                                                00010000D     43
     508                       1       1                               0D     44
     508      23                                                00010000D     45
     508                       1       1                               0D     46
     508      24                                                00010000D     47
     508                       1       1                               0D     48
     508      25                                                00010000D     49
     508                       1       1                               0D     50
     508      26                                                00010000D     51
     508                       1       1                               0D     52
     508      27                                                00010000D     53
     508                       1       1                               0D     54
     508      28                                                00010000D     55
     508                       1       1                               0D     56
     508      29                                                00010000D     57
     508                       1       1                               0D     58
     508      30                                                00010000D     59
     508                       1       1                               0D     60
     508      31                                                00010000D     61
     508                       1       1                               0D     62
     508      32                                                00010000D     63
     508                       1       1                               0D     64
     126      33                                                00010000D     65
     126       0              15       0                               0D     66
     126      48                                                00010000D     67
     126       0               5       0                               0D     68
     126      53                                                00010000D     69
     126       0              15       0                               0D     70
     126      68                                                00010000D     71
     126       0              13       0                               0D     72
     126      81                                                00010000D     73
     126       0               4       0                               0D     74
     126      85                                                00010000D     75
     126       0              13       0                               0D     76
     126      98                                                00010000D     77
     126       0              13       0                               0D     78
     126     111                                                00010000D     79
     126       0               4       0                               0D     80
     126     115                                                00010000D     81
     126       0              13       0                               0D     82
     126     128                                                00010000D     83
     126       0              15       0                               0D     84
     126     143                                                00010000D     85
     126       0               5       0                               0D     86
     126     148                                                00010000D     87
     126       0              15       0                               0D     88
     126     163                                                00010000D     89
     126       0              14       0                               0D     90
     126     177                                                00010000D     91
     126       0              13       0                               0D     92
     126     190                                                00010000D     93
     126       0              14       0                               0D     94
     126     204                                                00010000D     95
     126       0               4       0                               0D     96
     126     208                                                00010000D     97
     126       0              13       0                               0D     98
     126     221                                                00010000D     99
     126       0               5       0                               0D    100
     126     226                                                00010000D    101
     126       0              14       0                               0D    102
     126     240                                                00010000D    103
     126       0               5       0                               0D    104
     126     245                                                00010000D    105
     126       0              14       0                               0D    106
     128     259                                                00010000D    107
     128       0    -131      27       0                               0D    108
     128     286                                                00010000D    109
     128       0    -131      23       0                               0D    110
     128     309                                                00010000D    111
     128       0    -131      23       0                               0D    112
     128     332                                                00010000D    113
     128       0    -131      27       0                               0D    114
     128     359                                                00010000D    115
     128       0    -131       6       0                               0D    116
     128     365                                                00010000D    117
     128       0    -131      23       0                               0D    118
     128     388                                                00010000D    119
     128       0    -131      25       0                               0D    120
     128     413                                                00010000D    121
     128       0    -131      25       0                               0D    122
     128     438                                                00010000D    123
     128       0    -131       6       0                               0D    124
     502     444                                                00010000D    125
     502                      13       1                               0D    126
     504     457                                                00010001D    127
     504                       6       1                               0D    128
     406     463                                                00000000D    129
     406                       1      15                               0D    130
     314     464                                                00000200D    131
     314                       2       0                               0D    132
186,3,1,0,0,1,129;                                                     1P      1
514,9,5,1,7,1,9,1,11,1,13,1,15,1,17,1,19,1,21,1;                       3P      2
510,107,1,1,23;                                                        5P      3
510,109,1,1,25;                                                        7P      4
510,111,1,1,27;                                                        9P      5
510,113,1,1,29;                                                       11P      6
510,115,7,1,31,33,35,37,39,41,43;                                     13P      7
510,117,1,1,45;                                                       15P      8
510,119,1,1,47;                                                       17P      9
510,121,1,1,49;                                                       19P     10
510,123,7,1,51,53,55,57,59,61,63;                                     21P     11
508,4,0,127,1,0,0,0,127,2,1,0,0,127,3,0,0,0,127,2,0,0;                23P     12
508,4,0,127,4,0,0,0,127,5,1,0,0,127,6,0,0,0,127,5,0,0;                25P     13
508,4,0,127,7,0,0,0,127,8,1,0,0,127,9,0,0,0,127,8,0,0;                27P     14
508,4,0,127,10,0,0,0,127,11,1,0,0,127,12,0,0,0,127,11,0,0;            29P     15
508,1,0,127,13,0,0;                                                   31P     16
508,1,0,127,1,1,0;                                                    33P     17
508,1,0,127,4,1,0;                                                    35P     18
508,1,0,127,7,1,0;                                                    37P     19
508,1,0,127,10,1,0;                                                   39P     20
508,1,0,127,14,0,0;                                                   41P     21
508,1,0,127,15,0,0;                                                   43P     22
508,4,0,127,14,1,0,0,127,16,1,0,0,127,17,0,0,0,127,16,0,0;            45P     23
508,4,0,127,15,1,0,0,127,18,1,0,0,127,19,1,0,0,127,18,0,0;            47P     24
508,4,0,127,13,1,0,0,127,20,1,0,0,127,21,1,0,0,127,20,0,0;            49P     25
508,1,0,127,21,0,0;                                                   51P     26
508,1,0,127,3,1,0;                                                    53P     27
508,1,0,127,6,1,0;                                                    55P     28
508,1,0,127,9,1,0;                                                    57P     29
508,1,0,127,12,1,0;                                                   59P     30
508,1,0,127,17,1,0;                                                   61P     31
508,1,0,127,19,0,0;                                                   63P     32
126,8,2,0,1,0,0,-3.14159265358979,-3.14159265358979,                  65P     33
-3.14159265358979,-1.5707963267949,-1.5707963267949,0.,0.,            65P     34
1.5707963267949,1.5707963267949,3.14159265358979,                     65P     35
3.14159265358979,3.14159265358979,1.,0.707106781186528,1.,            65P     36
0.707106781186528,1.,0.707106781186528,1.,0.707106781186528,1.,       65P     37
-294.322707495031,138.749999999999,695.205764746812,                  65P     38
-294.322707495031,138.749999999999,697.322764746812,                  65P     39
-296.439707495031,138.749999999999,697.322764746812,                  65P     40
-298.556707495031,138.749999999999,697.322764746812,                  65P     41
-298.556707495031,138.749999999999,695.205764746812,                  65P     42
-298.556707495031,138.749999999999,693.088764746812,                  65P     43
-296.439707495031,138.749999999999,693.088764746812,                  65P     44
-294.322707495031,138.749999999999,693.088764746812,                  65P     45
-294.322707495031,138.749999999999,695.205764746812,                  65P     46
-3.14159265358979,3.14159265358979,0.,0.,0.;                          65P     47
126,1,1,0,0,1,0,4.59999999999977,4.59999999999977,                    67P     48
8.59999999999972,8.59999999999972,1.,1.,-294.322707495031,            67P     49
138.749999999999,695.205764746812,-294.322707495031,                  67P     50
128.749999999999,695.205764746812,4.59999999999977,                   67P     51
8.59999999999972,0.,0.,0.;                                            67P     52
126,8,2,0,1,0,0,-3.14159265358979,-3.14159265358979,                  69P     53
-3.14159265358979,-1.5707963267949,-1.5707963267949,0.,0.,            69P     54
1.5707963267949,1.5707963267949,3.14159265358979,                     69P     55
3.14159265358979,3.14159265358979,1.,0.707106781186528,1.,            69P     56
0.707106781186528,1.,0.707106781186528,1.,0.707106781186528,1.,       69P     57
-294.322707495031,128.749999999999,695.205764746812,                  69P     58
-294.322707495031,128.749999999999,693.088764746812,                  69P     59
-296.439707495031,128.749999999999,693.088764746812,                  69P     60
-298.556707495031,128.749999999999,693.088764746812,                  69P     61
-298.556707495031,128.749999999999,695.205764746812,                  69P     62
-298.556707495031,128.749999999999,697.322764746812,                  69P     63
-296.439707495031,128.749999999999,697.322764746812,                  69P     64
-294.322707495031,128.749999999999,697.322764746812,                  69P     65
-294.322707495031,128.749999999999,695.205764746812,                  69P     66
-3.14159265358979,3.14159265358979,0.,0.,0.;                          69P     67
126,8,2,0,1,0,0,-3.14159265358979,-3.14159265358979,                  71P     68
-3.14159265358979,-1.5707963267949,-1.5707963267949,0.,0.,            71P     69
1.5707963267949,1.5707963267949,3.14159265358979,                     71P     70
3.14159265358979,3.14159265358979,1.,0.707106781186528,1.,            71P     71
0.707106781186528,1.,0.707106781186528,1.,0.707106781186528,1.,       71P     72
-225.074827908591,138.75,644.894235253063,-225.074827908591,          71P     73
138.75,647.011235253063,-227.191827908591,138.75,                     71P     74
647.011235253063,-229.308827908591,138.75,647.011235253063,           71P     75
-229.308827908591,138.75,644.894235253063,-229.308827908591,          71P     76
138.75,642.777235253063,-227.191827908591,138.75,                     71P     77
642.777235253063,-225.074827908591,138.75,642.777235253063,           71P     78
-225.074827908591,138.75,644.894235253063,-3.14159265358979,          71P     79
3.14159265358979,0.,0.,0.;                                            71P     80
126,1,1,0,0,1,0,4.59999999999976,4.59999999999976,                    73P     81
8.59999999999971,8.59999999999971,1.,1.,-225.074827908591,            73P     82
138.75,644.894235253063,-225.074827908591,128.75,                     73P     83
644.894235253063,4.59999999999976,8.59999999999971,0.,0.,0.;          73P     84
126,8,2,0,1,0,0,-3.14159265358979,-3.14159265358979,                  75P     85
-3.14159265358979,-1.5707963267949,-1.5707963267949,0.,0.,            75P     86
1.5707963267949,1.5707963267949,3.14159265358979,                     75P     87
3.14159265358979,3.14159265358979,1.,0.707106781186528,1.,            75P     88
0.707106781186528,1.,0.707106781186528,1.,0.707106781186528,1.,       75P     89
-225.074827908591,128.75,644.894235253063,-225.074827908591,          75P     90
128.75,642.777235253063,-227.191827908591,128.75,                     75P     91
642.777235253063,-229.308827908591,128.75,642.777235253063,           75P     92
-229.308827908591,128.75,644.894235253063,-229.308827908591,          75P     93
128.75,647.011235253063,-227.191827908591,128.75,                     75P     94
647.011235253063,-225.074827908591,128.75,647.011235253063,           75P     95
-225.074827908591,128.75,644.894235253063,-3.14159265358979,          75P     96
3.14159265358979,0.,0.,0.;                                            75P     97
126,8,2,0,1,0,0,-3.14159265358979,-3.14159265358979,                  77P     98
-3.14159265358979,-1.5707963267949,-1.5707963267949,0.,0.,            77P     99
1.5707963267949,1.5707963267949,3.14159265358979,                     77P    100
3.14159265358979,3.14159265358979,1.,0.707106781186528,1.,            77P    101
0.707106781186528,1.,0.707106781186528,1.,0.707106781186528,1.,       77P    102
-241.422034788709,138.75,695.205764746809,-241.422034788709,          77P    103
138.75,697.322764746809,-243.539034788709,138.75,                     77P    104
697.322764746809,-245.656034788709,138.75,697.322764746809,           77P    105
-245.656034788709,138.75,695.205764746809,-245.656034788709,          77P    106
138.75,693.088764746809,-243.539034788709,138.75,                     77P    107
693.088764746809,-241.422034788709,138.75,693.088764746809,           77P    108
-241.422034788709,138.75,695.205764746809,-3.14159265358979,          77P    109
3.14159265358979,0.,0.,0.;                                            77P    110
126,1,1,0,0,1,0,4.59999999999976,4.59999999999976,                    79P    111
8.59999999999971,8.59999999999971,1.,1.,-241.422034788709,            79P    112
138.75,695.205764746809,-241.422034788709,128.75,                     79P    113
695.205764746809,4.59999999999976,8.59999999999971,0.,0.,0.;          79P    114
126,8,2,0,1,0,0,-3.14159265358979,-3.14159265358979,                  81P    115
-3.14159265358979,-1.5707963267949,-1.5707963267949,0.,0.,            81P    116
1.5707963267949,1.5707963267949,3.14159265358979,                     81P    117
3.14159265358979,3.14159265358979,1.,0.707106781186528,1.,            81P    118
0.707106781186528,1.,0.707106781186528,1.,0.707106781186528,1.,       81P    119
-241.422034788709,128.75,695.205764746809,-241.422034788709,          81P    120
128.75,693.088764746809,-243.539034788709,128.75,                     81P    121
693.088764746809,-245.656034788709,128.75,693.088764746809,           81P    122
-245.656034788709,128.75,695.205764746809,-245.656034788709,          81P    123
128.75,697.322764746809,-243.539034788709,128.75,                     81P    124
697.322764746809,-241.422034788709,128.75,697.322764746809,           81P    125
-241.422034788709,128.75,695.205764746809,-3.14159265358979,          81P    126
3.14159265358979,0.,0.,0.;                                            81P    127
126,8,2,0,1,0,0,-3.14159265358979,-3.14159265358979,                  83P    128
-3.14159265358979,-1.5707963267949,-1.5707963267949,0.,0.,            83P    129
1.5707963267949,1.5707963267949,3.14159265358979,                     83P    130
3.14159265358979,3.14159265358979,1.,0.707106781186528,1.,            83P    131
0.707106781186528,1.,0.707106781186528,1.,0.707106781186528,1.,       83P    132
-310.669914375155,138.749999999999,644.894235253068,                  83P    133
-310.669914375155,138.749999999999,647.011235253068,                  83P    134
-312.786914375155,138.749999999999,647.011235253068,                  83P    135
-314.903914375155,138.749999999999,647.011235253068,                  83P    136
-314.903914375155,138.749999999999,644.894235253068,                  83P    137
-314.903914375155,138.749999999999,642.777235253068,                  83P    138
-312.786914375155,138.749999999999,642.777235253068,                  83P    139
-310.669914375155,138.749999999999,642.777235253068,                  83P    140
-310.669914375155,138.749999999999,644.894235253068,                  83P    141
-3.14159265358979,3.14159265358979,0.,0.,0.;                          83P    142
126,1,1,0,0,1,0,4.59999999999977,4.59999999999977,                    85P    143
8.59999999999972,8.59999999999972,1.,1.,-310.669914375155,            85P    144
138.749999999999,644.894235253068,-310.669914375155,                  85P    145
128.749999999999,644.894235253068,4.59999999999977,                   85P    146
8.59999999999972,0.,0.,0.;                                            85P    147
126,8,2,0,1,0,0,-3.14159265358979,-3.14159265358979,                  87P    148
-3.14159265358979,-1.5707963267949,-1.5707963267949,0.,0.,            87P    149
1.5707963267949,1.5707963267949,3.14159265358979,                     87P    150
3.14159265358979,3.14159265358979,1.,0.707106781186528,1.,            87P    151
0.707106781186528,1.,0.707106781186528,1.,0.707106781186528,1.,       87P    152
-310.669914375155,128.749999999999,644.894235253068,                  87P    153
-310.669914375155,128.749999999999,642.777235253068,                  87P    154
-312.786914375155,128.749999999999,642.777235253068,                  87P    155
-314.903914375155,128.749999999999,642.777235253068,                  87P    156
-314.903914375155,128.749999999999,644.894235253068,                  87P    157
-314.903914375155,128.749999999999,647.011235253068,                  87P    158
-312.786914375155,128.749999999999,647.011235253068,                  87P    159
-310.669914375155,128.749999999999,647.011235253068,                  87P    160
-310.669914375155,128.749999999999,644.894235253068,                  87P    161
-3.14159265358979,3.14159265358979,0.,0.,0.;                          87P    162
126,8,2,0,1,0,0,-3.14159265358979,-3.14159265358979,                  89P    163
-3.14159265358979,-1.5707963267949,-1.5707963267949,0.,0.,            89P    164
1.5707963267949,1.5707963267949,3.14159265358979,                     89P    165
3.14159265358979,3.14159265358979,1.,0.707106781186548,1.,            89P    166
0.707106781186548,1.,0.707106781186548,1.,0.707106781186548,1.,       89P    167
-219.989371141875,138.749999999999,658.799999999938,                  89P    168
-219.989371141875,138.749999999999,708.799999999938,                  89P    169
-269.989371141875,138.75,708.799999999938,-319.989371141875,          89P    170
138.75,708.799999999938,-319.989371141875,138.75,                     89P    171
658.799999999938,-319.989371141875,138.75,608.799999999938,           89P    172
-269.989371141875,138.75,608.799999999938,-219.989371141875,          89P    173
138.749999999999,608.799999999938,-219.989371141875,                  89P    174
138.749999999999,658.799999999938,-3.14159265358979,                  89P    175
3.14159265358979,0.,0.,0.;                                            89P    176
126,8,2,0,1,0,0,-3.14159265358979,-3.14159265358979,                  91P    177
-3.14159265358979,-1.5707963267949,-1.5707963267949,0.,0.,            91P    178
1.5707963267949,1.5707963267949,3.14159265358979,                     91P    179
3.14159265358979,3.14159265358979,1.,0.707106781186557,1.,            91P    180
0.707106781186557,1.,0.707106781186557,1.,0.707106781186557,1.,       91P    181
-267.872371141875,138.75,613.799999999938,-267.872371141875,          91P    182
138.75,611.682999999938,-269.989371141875,138.75,                     91P    183
611.682999999938,-272.106371141875,138.75,611.682999999938,           91P    184
-272.106371141875,138.75,613.799999999938,-272.106371141875,          91P    185
138.75,615.916999999938,-269.989371141875,138.75,                     91P    186
615.916999999938,-267.872371141875,138.75,615.916999999938,           91P    187
-267.872371141875,138.75,613.799999999938,-3.14159265358979,          91P    188
3.14159265358979,0.,0.,0.;                                            91P    189
126,8,2,0,1,0,0,-3.14159265358979,-3.14159265358979,                  93P    190
-3.14159265358979,-1.5707963267949,-1.5707963267949,0.,0.,            93P    191
1.5707963267949,1.5707963267949,3.14159265358979,                     93P    192
3.14159265358979,3.14159265358979,1.,0.707106781186546,1.,            93P    193
0.707106781186546,1.,0.707106781186548,1.,0.707106781186548,1.,       93P    194
-230.989371141875,138.749999999999,658.799999999938,                  93P    195
-230.989371141875,138.749999999999,619.799999999938,                  93P    196
-269.989371141875,138.75,619.799999999938,-308.989371141875,          93P    197
138.75,619.799999999938,-308.989371141875,138.75,                     93P    198
658.799999999938,-308.989371141875,138.75,697.799999999938,           93P    199
-269.989371141875,138.75,697.799999999938,-230.989371141875,          93P    200
138.749999999999,697.799999999938,-230.989371141875,                  93P    201
138.749999999999,658.799999999938,-3.14159265358979,                  93P    202
3.14159265358979,0.,0.,0.;                                            93P    203
126,1,1,0,0,1,0,4.39999999999979,4.39999999999979,                    95P    204
8.39999999999973,8.39999999999973,1.,1.,-267.872371141875,            95P    205
138.75,613.799999999938,-267.872371141875,128.75,                     95P    206
613.799999999938,4.39999999999979,8.39999999999973,0.,0.,0.;          95P    207
126,8,2,0,1,0,0,-3.14159265358979,-3.14159265358979,                  97P    208
-3.14159265358979,-1.5707963267949,-1.5707963267949,0.,0.,            97P    209
1.5707963267949,1.5707963267949,3.14159265358979,                     97P    210
3.14159265358979,3.14159265358979,1.,0.707106781186557,1.,            97P    211
0.707106781186557,1.,0.707106781186557,1.,0.707106781186557,1.,       97P    212
-267.872371141875,128.75,613.799999999938,-267.872371141875,          97P    213
128.75,611.682999999938,-269.989371141875,128.75,                     97P    214
611.682999999938,-272.106371141875,128.75,611.682999999938,           97P    215
-272.106371141875,128.75,613.799999999938,-272.106371141875,          97P    216
128.75,615.916999999938,-269.989371141875,128.75,                     97P    217
615.916999999938,-267.872371141875,128.75,615.916999999938,           97P    218
-267.872371141875,128.75,613.799999999938,-3.14159265358979,          97P    219
3.14159265358979,0.,0.,0.;                                            97P    220
126,1,1,0,0,1,0,-0.256410256410257,-0.256410256410257,                99P    221
1.67899221045762D-15,1.67899221045762D-15,1.,1.,                      99P    222
-230.989371141875,138.749999999999,658.799999999938,                  99P    223
-230.989371141875,128.749999999999,658.799999999938,                  99P    224
-0.256410256410257,1.67899221045762D-15,0.,0.,0.;                     99P    225
126,8,2,0,1,0,0,-3.14159265358979,-3.14159265358979,                 101P    226
-3.14159265358979,-1.5707963267949,-1.5707963267949,0.,0.,           101P    227
1.5707963267949,1.5707963267949,3.14159265358979,                    101P    228
3.14159265358979,3.14159265358979,1.,0.707106781186548,1.,           101P    229
0.707106781186548,1.,0.707106781186546,1.,0.707106781186546,1.,      101P    230
-230.989371141875,128.749999999999,658.799999999938,                 101P    231
-230.989371141875,128.749999999999,697.799999999938,                 101P    232
-269.989371141875,128.75,697.799999999938,-308.989371141875,         101P    233
128.75,697.799999999938,-308.989371141875,128.75,                    101P    234
658.799999999938,-308.989371141875,128.75,619.799999999938,          101P    235
-269.989371141875,128.75,619.799999999938,-230.989371141875,         101P    236
128.749999999999,619.799999999938,-230.989371141875,                 101P    237
128.749999999999,658.799999999938,-3.14159265358979,                 101P    238
3.14159265358979,0.,0.,0.;                                           101P    239
126,1,1,0,0,1,0,-0.200000000000001,-0.200000000000001,               103P    240
1.67899221045762D-15,1.67899221045762D-15,1.,1.,                     103P    241
-219.989371141875,138.749999999999,658.799999999938,                 103P    242
-219.989371141875,128.749999999999,658.799999999938,                 103P    243
-0.200000000000001,1.67899221045762D-15,0.,0.,0.;                    103P    244
126,8,2,0,1,0,0,-3.14159265358979,-3.14159265358979,                 105P    245
-3.14159265358979,-1.5707963267949,-1.5707963267949,0.,0.,           105P    246
1.5707963267949,1.5707963267949,3.14159265358979,                    105P    247
3.14159265358979,3.14159265358979,1.,0.707106781186548,1.,           105P    248
0.707106781186548,1.,0.707106781186548,1.,0.707106781186548,1.,      105P    249
-219.989371141875,128.749999999999,658.799999999938,                 105P    250
-219.989371141875,128.749999999999,608.799999999938,                 105P    251
-269.989371141875,128.75,608.799999999938,-319.989371141875,         105P    252
128.75,608.799999999938,-319.989371141875,128.75,                    105P    253
658.799999999938,-319.989371141875,128.75,708.799999999938,          105P    254
-269.989371141875,128.75,708.799999999938,-219.989371141875,         105P    255
128.749999999999,708.799999999938,-219.989371141875,                 105P    256
128.749999999999,658.799999999938,-3.14159265358979,                 105P    257
3.14159265358979,0.,0.,0.;                                           105P    258
128,1,8,1,2,0,1,0,0,1,4.59999999999977,4.59999999999977,             107P    259
8.59999999999972,8.59999999999972,-3.14159265358979,                 107P    260
-3.14159265358979,-3.14159265358979,-1.5707963267949,                107P    261
-1.5707963267949,0.,0.,1.5707963267949,1.5707963267949,              107P    262
3.14159265358979,3.14159265358979,3.14159265358979,1.,1.,            107P    263
0.707106781186548,0.707106781186548,1.,1.,0.707106781186548,         107P    264
0.707106781186548,1.,1.,0.707106781186548,0.707106781186548,1.,      107P    265
1.,0.707106781186548,0.707106781186548,1.,1.,-294.322707495031,      107P    266
138.749999999999,695.205764746812,-294.322707495031,                 107P    267
128.749999999999,695.205764746812,-294.322707495031,                 107P    268
138.749999999999,697.322764746812,-294.322707495031,                 107P    269
128.749999999999,697.322764746812,-296.439707495031,                 107P    270
138.749999999999,697.322764746812,-296.439707495031,                 107P    271
128.749999999999,697.322764746812,-298.556707495031,                 107P    272
138.749999999999,697.322764746812,-298.556707495031,                 107P    273
128.749999999999,697.322764746812,-298.556707495031,                 107P    274
138.749999999999,695.205764746812,-298.556707495031,                 107P    275
128.749999999999,695.205764746812,-298.556707495031,                 107P    276
138.749999999999,693.088764746812,-298.556707495031,                 107P    277
128.749999999999,693.088764746812,-296.439707495031,                 107P    278
138.749999999999,693.088764746812,-296.439707495031,                 107P    279
128.749999999999,693.088764746812,-294.322707495031,                 107P    280
138.749999999999,693.088764746812,-294.322707495031,                 107P    281
128.749999999999,693.088764746812,-294.322707495031,                 107P    282
138.749999999999,695.205764746812,-294.322707495031,                 107P    283
128.749999999999,695.205764746812,4.59999999999977,                  107P    284
8.59999999999972,-3.14159265358979,3.14159265358979;                 107P    285
128,1,8,1,2,0,1,0,0,1,4.59999999999976,4.59999999999976,             109P    286
8.59999999999971,8.59999999999971,-3.14159265358979,                 109P    287
-3.14159265358979,-3.14159265358979,-1.5707963267949,                109P    288
-1.5707963267949,0.,0.,1.5707963267949,1.5707963267949,              109P    289
3.14159265358979,3.14159265358979,3.14159265358979,1.,1.,            109P    290
0.707106781186548,0.707106781186548,1.,1.,0.707106781186548,         109P    291
0.707106781186548,1.,1.,0.707106781186548,0.707106781186548,1.,      109P    292
1.,0.707106781186548,0.707106781186548,1.,1.,-225.074827908591,      109P    293
138.75,644.894235253063,-225.074827908591,128.75,                    109P    294
644.894235253063,-225.074827908591,138.75,647.011235253063,          109P    295
-225.074827908591,128.75,647.011235253063,-227.191827908591,         109P    296
138.75,647.011235253063,-227.191827908591,128.75,                    109P    297
647.011235253063,-229.308827908591,138.75,647.011235253063,          109P    298
-229.308827908591,128.75,647.011235253063,-229.308827908591,         109P    299
138.75,644.894235253063,-229.308827908591,128.75,                    109P    300
644.894235253063,-229.308827908591,138.75,642.777235253063,          109P    301
-229.308827908591,128.75,642.777235253063,-227.191827908591,         109P    302
138.75,642.777235253063,-227.191827908591,128.75,                    109P    303
642.777235253063,-225.074827908591,138.75,642.777235253063,          109P    304
-225.074827908591,128.75,642.777235253063,-225.074827908591,         109P    305
138.75,644.894235253063,-225.074827908591,128.75,                    109P    306
644.894235253063,4.59999999999976,8.59999999999971,                  109P    307
-3.14159265358979,3.14159265358979;                                  109P    308
128,1,8,1,2,0,1,0,0,1,4.59999999999976,4.59999999999976,             111P    309
8.59999999999971,8.59999999999971,-3.14159265358979,                 111P    310
-3.14159265358979,-3.14159265358979,-1.5707963267949,                111P    311
-1.5707963267949,0.,0.,1.5707963267949,1.5707963267949,              111P    312
3.14159265358979,3.14159265358979,3.14159265358979,1.,1.,            111P    313
0.707106781186548,0.707106781186548,1.,1.,0.707106781186548,         111P    314
0.707106781186548,1.,1.,0.707106781186548,0.707106781186548,1.,      111P    315
1.,0.707106781186548,0.707106781186548,1.,1.,-241.422034788709,      111P    316
138.75,695.205764746809,-241.422034788709,128.75,                    111P    317
695.205764746809,-241.422034788709,138.75,697.322764746809,          111P    318
-241.422034788709,128.75,697.322764746809,-243.539034788709,         111P    319
138.75,697.322764746809,-243.539034788709,128.75,                    111P    320
697.322764746809,-245.656034788709,138.75,697.322764746809,          111P    321
-245.656034788709,128.75,697.322764746809,-245.656034788709,         111P    322
138.75,695.205764746809,-245.656034788709,128.75,                    111P    323
695.205764746809,-245.656034788709,138.75,693.088764746809,          111P    324
-245.656034788709,128.75,693.088764746809,-243.539034788709,         111P    325
138.75,693.088764746809,-243.539034788709,128.75,                    111P    326
693.088764746809,-241.422034788709,138.75,693.088764746809,          111P    327
-241.422034788709,128.75,693.088764746809,-241.422034788709,         111P    328
138.75,695.205764746809,-241.422034788709,128.75,                    111P    329
695.205764746809,4.59999999999976,8.59999999999971,                  111P    330
-3.14159265358979,3.14159265358979;                                  111P    331
128,1,8,1,2,0,1,0,0,1,4.59999999999977,4.59999999999977,             113P    332
8.59999999999972,8.59999999999972,-3.14159265358979,                 113P    333
-3.14159265358979,-3.14159265358979,-1.5707963267949,                113P    334
-1.5707963267949,0.,0.,1.5707963267949,1.5707963267949,              113P    335
3.14159265358979,3.14159265358979,3.14159265358979,1.,1.,            113P    336
0.707106781186548,0.707106781186548,1.,1.,0.707106781186548,         113P    337
0.707106781186548,1.,1.,0.707106781186548,0.707106781186548,1.,      113P    338
1.,0.707106781186548,0.707106781186548,1.,1.,-310.669914375155,      113P    339
138.749999999999,644.894235253068,-310.669914375155,                 113P    340
128.749999999999,644.894235253068,-310.669914375155,                 113P    341
138.749999999999,647.011235253068,-310.669914375155,                 113P    342
128.749999999999,647.011235253068,-312.786914375155,                 113P    343
138.749999999999,647.011235253068,-312.786914375155,                 113P    344
128.749999999999,647.011235253068,-314.903914375155,                 113P    345
138.749999999999,647.011235253068,-314.903914375155,                 113P    346
128.749999999999,647.011235253068,-314.903914375155,                 113P    347
138.749999999999,644.894235253068,-314.903914375155,                 113P    348
128.749999999999,644.894235253068,-314.903914375155,                 113P    349
138.749999999999,642.777235253068,-314.903914375155,                 113P    350
128.749999999999,642.777235253068,-312.786914375155,                 113P    351
138.749999999999,642.777235253068,-312.786914375155,                 113P    352
128.749999999999,642.777235253068,-310.669914375155,                 113P    353
138.749999999999,642.777235253068,-310.669914375155,                 113P    354
128.749999999999,642.777235253068,-310.669914375155,                 113P    355
138.749999999999,644.894235253068,-310.669914375155,                 113P    356
128.749999999999,644.894235253068,4.59999999999977,                  113P    357
8.59999999999972,-3.14159265358979,3.14159265358979;                 113P    358
128,1,1,1,1,0,0,1,0,0,-5.001,-5.001,5.001,5.001,-5.001,-5.001,       115P    359
5.001,5.001,1.,1.,1.,1.,-219.979371141875,138.749999999999,          115P    360
608.789999999938,-319.999371141875,138.75,608.789999999938,          115P    361
-219.979371141875,138.749999999999,708.809999999938,                 115P    362
-319.999371141875,138.75,708.809999999938,-5.001,5.001,-5.001,       115P    363
5.001;                                                               115P    364
128,1,8,1,2,0,1,0,0,1,4.39999999999979,4.39999999999979,             117P    365
8.39999999999973,8.39999999999973,-3.14159265358979,                 117P    366
-3.14159265358979,-3.14159265358979,-1.5707963267949,                117P    367
-1.5707963267949,0.,0.,1.5707963267949,1.5707963267949,              117P    368
3.14159265358979,3.14159265358979,3.14159265358979,1.,1.,            117P    369
0.707106781186548,0.707106781186548,1.,1.,0.707106781186548,         117P    370
0.707106781186548,1.,1.,0.707106781186548,0.707106781186548,1.,      117P    371
1.,0.707106781186548,0.707106781186548,1.,1.,-267.872371141875,      117P    372
138.75,613.799999999938,-267.872371141875,128.75,                    117P    373
613.799999999938,-267.872371141875,138.75,615.916999999938,          117P    374
-267.872371141875,128.75,615.916999999938,-269.989371141875,         117P    375
138.75,615.916999999938,-269.989371141875,128.75,                    117P    376
615.916999999938,-272.106371141875,138.75,615.916999999938,          117P    377
-272.106371141875,128.75,615.916999999938,-272.106371141875,         117P    378
138.75,613.799999999938,-272.106371141875,128.75,                    117P    379
613.799999999938,-272.106371141875,138.75,611.682999999938,          117P    380
-272.106371141875,128.75,611.682999999938,-269.989371141875,         117P    381
138.75,611.682999999938,-269.989371141875,128.75,                    117P    382
611.682999999938,-267.872371141875,138.75,611.682999999938,          117P    383
-267.872371141875,128.75,611.682999999938,-267.872371141875,         117P    384
138.75,613.799999999938,-267.872371141875,128.75,                    117P    385
613.799999999938,4.39999999999979,8.39999999999973,                  117P    386
-3.14159265358979,3.14159265358979;                                  117P    387
128,1,8,1,2,0,1,0,0,1,-1.67899221045762D-15,                         119P    388
-1.67899221045762D-15,0.256410256410257,0.256410256410257,           119P    389
-3.14159265358979,-3.14159265358979,-3.14159265358979,               119P    390
-1.5707963267949,-1.5707963267949,0.,0.,1.5707963267949,             119P    391
1.5707963267949,3.14159265358979,3.14159265358979,                   119P    392
3.14159265358979,1.,1.,0.707106781186548,0.707106781186548,1.,       119P    393
1.,0.707106781186548,0.707106781186548,1.,1.,0.707106781186548,      119P    394
0.707106781186548,1.,1.,0.707106781186548,0.707106781186548,1.,      119P    395
1.,-230.989371141875,128.749999999999,658.799999999938,              119P    396
-230.989371141875,138.749999999999,658.799999999938,                 119P    397
-230.989371141875,128.749999999999,619.799999999938,                 119P    398
-230.989371141875,138.749999999999,619.799999999938,                 119P    399
-269.989371141875,128.75,619.799999999938,-269.989371141875,         119P    400
138.75,619.799999999938,-308.989371141875,128.75,                    119P    401
619.799999999938,-308.989371141875,138.75,619.799999999938,          119P    402
-308.989371141875,128.75,658.799999999938,-308.989371141875,         119P    403
138.75,658.799999999938,-308.989371141875,128.75,                    119P    404
697.799999999938,-308.989371141875,138.75,697.799999999938,          119P    405
-269.989371141875,128.75,697.799999999938,-269.989371141875,         119P    406
138.75,697.799999999938,-230.989371141875,128.749999999999,          119P    407
697.799999999938,-230.989371141875,138.749999999999,                 119P    408
697.799999999938,-230.989371141875,128.749999999999,                 119P    409
658.799999999938,-230.989371141875,138.749999999999,                 119P    410
658.799999999938,-1.67899221045762D-15,0.256410256410257,            119P    411
-3.14159265358979,3.14159265358979;                                  119P    412
128,1,8,1,2,0,1,0,0,1,-1.67899221045762D-15,                         121P    413
-1.67899221045762D-15,0.200000000000001,0.200000000000001,           121P    414
-3.14159265358979,-3.14159265358979,-3.14159265358979,               121P    415
-1.5707963267949,-1.5707963267949,0.,0.,1.5707963267949,             121P    416
1.5707963267949,3.14159265358979,3.14159265358979,                   121P    417
3.14159265358979,1.,1.,0.707106781186548,0.707106781186548,1.,       121P    418
1.,0.707106781186548,0.707106781186548,1.,1.,0.707106781186548,      121P    419
0.707106781186548,1.,1.,0.707106781186548,0.707106781186548,1.,      121P    420
1.,-219.989371141875,138.749999999999,658.799999999938,              121P    421
-219.989371141875,128.749999999999,658.799999999938,                 121P    422
-219.989371141875,138.749999999999,608.799999999938,                 121P    423
-219.989371141875,128.749999999999,608.799999999938,                 121P    424
-269.989371141875,138.75,608.799999999938,-269.989371141875,         121P    425
128.749999999999,608.799999999938,-319.989371141875,138.75,          121P    426
608.799999999938,-319.989371141875,128.75,608.799999999938,          121P    427
-319.989371141875,138.75,658.799999999938,-319.989371141875,         121P    428
128.75,658.799999999938,-319.989371141875,138.75,                    121P    429
708.799999999938,-319.989371141875,128.75,708.799999999938,          121P    430
-269.989371141875,138.75,708.799999999938,-269.989371141875,         121P    431
128.749999999999,708.799999999938,-219.989371141875,                 121P    432
138.749999999999,708.799999999938,-219.989371141875,                 121P    433
128.749999999999,708.799999999938,-219.989371141875,                 121P    434
138.749999999999,658.799999999938,-219.989371141875,                 121P    435
128.749999999999,658.799999999938,-1.67899221045762D-15,             121P    436
0.200000000000001,-3.14159265358979,3.14159265358979;                121P    437
128,1,1,1,1,0,0,1,0,0,-5.001,-5.001,5.001,5.001,-5.001,-5.001,       123P    438
5.001,5.001,1.,1.,1.,1.,-319.999371141875,128.75,                    123P    439
608.789999999938,-219.979371141875,128.749999999999,                 123P    440
608.789999999938,-319.999371141875,128.75,708.809999999938,          123P    441
-219.979371141875,128.749999999999,708.809999999938,-5.001,          123P    442
5.001,-5.001,5.001;                                                  123P    443
502,14,-294.322707495031,138.749999999999,695.205764746812,          125P    444
-294.322707495031,128.749999999999,695.205764746812,                 125P    445
-225.074827908591,138.75,644.894235253063,-225.074827908591,         125P    446
128.75,644.894235253063,-241.422034788709,138.75,                    125P    447
695.205764746809,-241.422034788709,128.75,695.205764746809,          125P    448
-310.669914375155,138.749999999999,644.894235253068,                 125P    449
-310.669914375155,128.749999999999,644.894235253068,                 125P    450
-219.989371141875,138.749999999999,658.799999999938,                 125P    451
-267.872371141875,138.75,613.799999999938,-230.989371141875,         125P    452
138.749999999999,658.799999999938,-267.872371141875,128.75,          125P    453
613.799999999938,-230.989371141875,128.749999999999,                 125P    454
658.799999999938,-219.989371141875,128.749999999999,                 125P    455
658.799999999938;                                                    125P    456
504,21,65,125,1,125,1,67,125,1,125,2,69,125,2,125,2,71,125,3,        127P    457
125,3,73,125,3,125,4,75,125,4,125,4,77,125,5,125,5,79,125,5,125,     127P    458
6,81,125,6,125,6,83,125,7,125,7,85,125,7,125,8,87,125,8,125,8,       127P    459
89,125,9,125,9,91,125,10,125,10,93,125,11,125,11,95,125,10,125,      127P    460
12,97,125,12,125,12,99,125,11,125,13,101,125,13,125,13,103,125,      127P    461
9,125,14,105,125,14,125,14;                                          127P    462
406,1,13HBearing Mount;                                              129P    463
314,62.7450980392157,62.7450980392157,62.7450980392157,13HSteel      131P    464
- Satin;                                                             131P    465
S      1G      2D    132P    465                                        T      1
