                                                                        S      1
,,9HV Metal 2,9HV Metal 2,7Hunknown,7Hunknown,32,38,7,99,15,,1.,2,2HMM, G      1
1,0.08,15H20230103.214233,0.01,10000.,7Hunknown,7Hunknown,11,0,;        G      2
     186       1                                                00000000D      1
     186            -171       1       0                               0D      2
     514       2                                                00010000D      3
     514                       1       1                               0D      4
     510       3                                                00010000D      5
     510            -171       1       1                               0D      6
     510       4                                                00010000D      7
     510            -171       1       1                               0D      8
     510       5                                                00010000D      9
     510            -171       1       1                               0D     10
     510       6                                                00010000D     11
     510            -171       1       1                               0D     12
     510       7                                                00010000D     13
     510            -171       1       1                               0D     14
     510       8                                                00010000D     15
     510            -171       1       1                               0D     16
     510       9                                                00010000D     17
     510            -171       1       1                               0D     18
     510      10                                                00010000D     19
     510            -171       1       1                               0D     20
     510      11                                                00010000D     21
     510            -171       1       1                               0D     22
     510      12                                                00010000D     23
     510            -171       1       1                               0D     24
     510      13                                                00010000D     25
     510            -171       1       1                               0D     26
     510      14                                                00010000D     27
     510            -171       1       1                               0D     28
     508      15                                                00010000D     29
     508                       1       1                               0D     30
     508      16                                                00010000D     31
     508                       1       1                               0D     32
     508      17                                                00010000D     33
     508                       1       1                               0D     34
     508      18                                                00010000D     35
     508                       1       1                               0D     36
     508      19                                                00010000D     37
     508                       2       1                               0D     38
     508      21                                                00010000D     39
     508                       1       1                               0D     40
     508      22                                                00010000D     41
     508                       1       1                               0D     42
     508      23                                                00010000D     43
     508                       1       1                               0D     44
     508      24                                                00010000D     45
     508                       1       1                               0D     46
     508      25                                                00010000D     47
     508                       1       1                               0D     48
     508      26                                                00010000D     49
     508                       1       1                               0D     50
     508      27                                                00010000D     51
     508                       1       1                               0D     52
     508      28                                                00010000D     53
     508                       1       1                               0D     54
     508      29                                                00010000D     55
     508                       1       1                               0D     56
     508      30                                                00010000D     57
     508                       1       1                               0D     58
     508      31                                                00010000D     59
     508                       1       1                               0D     60
     508      32                                                00010000D     61
     508                       1       1                               0D     62
     508      33                                                00010000D     63
     508                       1       1                               0D     64
     508      34                                                00010000D     65
     508                       1       1                               0D     66
     508      35                                                00010000D     67
     508                       1       1                               0D     68
     508      36                                                00010000D     69
     508                       1       1                               0D     70
     508      37                                                00010000D     71
     508                       1       1                               0D     72
     508      38                                                00010000D     73
     508                       1       1                               0D     74
     508      39                                                00010000D     75
     508                       1       1                               0D     76
     126      40                                                00010000D     77
     126       0              12       0                               0D     78
     126      52                                                00010000D     79
     126       0               2       0                               0D     80
     126      54                                                00010000D     81
     126       0              12       0                               0D     82
     126      66                                                00010000D     83
     126       0              15       0                               0D     84
     126      81                                                00010000D     85
     126       0               5       0                               0D     86
     126      86                                                00010000D     87
     126       0              15       0                               0D     88
     126     101                                                00010000D     89
     126       0              15       0                               0D     90
     126     116                                                00010000D     91
     126       0               5       0                               0D     92
     126     121                                                00010000D     93
     126       0              15       0                               0D     94
     126     136                                                00010000D     95
     126       0              15       0                               0D     96
     126     151                                                00010000D     97
     126       0               5       0                               0D     98
     126     156                                                00010000D     99
     126       0              15       0                               0D    100
     126     171                                                00010000D    101
     126       0               6       0                               0D    102
     126     177                                                00010000D    103
     126       0              14       0                               0D    104
     126     191                                                00010000D    105
     126       0               5       0                               0D    106
     126     196                                                00010000D    107
     126       0              14       0                               0D    108
     126     210                                                00010000D    109
     126       0               6       0                               0D    110
     126     216                                                00010000D    111
     126       0              15       0                               0D    112
     126     231                                                00010000D    113
     126       0               5       0                               0D    114
     126     236                                                00010000D    115
     126       0              15       0                               0D    116
     126     251                                                00010000D    117
     126       0               8       0                               0D    118
     126     259                                                00010000D    119
     126       0               4       0                               0D    120
     126     263                                                00010000D    121
     126       0               5       0                               0D    122
     126     268                                                00010000D    123
     126       0               4       0                               0D    124
     126     272                                                00010000D    125
     126       0               4       0                               0D    126
     126     276                                                00010000D    127
     126       0               8       0                               0D    128
     126     284                                                00010000D    129
     126       0               4       0                               0D    130
     126     288                                                00010000D    131
     126       0               5       0                               0D    132
     126     293                                                00010000D    133
     126       0               5       0                               0D    134
     126     298                                                00010000D    135
     126       0               4       0                               0D    136
     126     302                                                00010000D    137
     126       0               2       0                               0D    138
     126     304                                                00010000D    139
     126       0               3       0                               0D    140
     128     307                                                00010000D    141
     128       0    -171      17       0                               0D    142
     128     324                                                00010000D    143
     128       0    -171      27       0                               0D    144
     128     351                                                00010000D    145
     128       0    -171      27       0                               0D    146
     128     378                                                00010000D    147
     128       0    -171      27       0                               0D    148
     128     405                                                00010000D    149
     128       0    -171      27       0                               0D    150
     128     432                                                00010000D    151
     128       0    -171      27       0                               0D    152
     128     459                                                00010000D    153
     128       0    -171       7       0                               0D    154
     128     466                                                00010000D    155
     128       0    -171       8       0                               0D    156
     128     474                                                00010000D    157
     128       0    -171       8       0                               0D    158
     128     482                                                00010000D    159
     128       0    -171       6       0                               0D    160
     128     488                                                00010000D    161
     128       0    -171      14       0                               0D    162
     128     502                                                00010000D    163
     128       0    -171       7       0                               0D    164
     502     509                                                00010000D    165
     502                      18       1                               0D    166
     504     527                                                00010001D    167
     504                       9       1                               0D    168
     406     536                                                00000000D    169
     406                       1      15                               0D    170
     314     537                                                00000200D    171
     314                       1       0                               0D    172
     314     538                                                00000200D    173
     314                       2       0                               0D    174
186,3,1,0,0,1,169;                                                     1P      1
514,12,5,1,7,1,9,1,11,1,13,1,15,1,17,1,19,1,21,1,23,1,25,1,27,1;       3P      2
510,141,1,1,29;                                                        5P      3
510,143,1,1,31;                                                        7P      4
510,145,1,1,33;                                                        9P      5
510,147,1,1,35;                                                       11P      6
510,149,1,1,37;                                                       13P      7
510,151,1,1,39;                                                       15P      8
510,153,7,1,41,43,45,47,49,51,53;                                     17P      9
510,155,7,1,55,57,59,61,63,65,67;                                     19P     10
510,157,1,1,69;                                                       21P     11
510,159,1,1,71;                                                       23P     12
510,161,1,1,73;                                                       25P     13
510,163,1,1,75;                                                       27P     14
508,4,0,167,1,0,0,0,167,2,1,0,0,167,3,0,0,0,167,2,0,0;                29P     15
508,4,0,167,4,0,0,0,167,5,1,0,0,167,6,0,0,0,167,5,0,0;                31P     16
508,4,0,167,7,0,0,0,167,8,1,0,0,167,9,0,0,0,167,8,0,0;                33P     17
508,4,0,167,10,0,0,0,167,11,1,0,0,167,12,0,0,0,167,11,0,0;            35P     18
508,6,0,167,13,0,0,0,167,14,0,0,0,167,15,1,0,0,167,16,1,0,0,167,      37P     19
17,1,0,0,167,15,0,0;                                                  37P     20
508,4,0,167,18,0,0,0,167,19,1,0,0,167,20,0,0,0,167,19,0,0;            39P     21
508,4,0,167,21,0,0,0,167,22,0,0,0,167,23,0,0,0,167,24,0,0;            41P     22
508,1,0,167,3,1,0;                                                    43P     23
508,2,0,167,17,0,0,0,167,16,0,0;                                      45P     24
508,1,0,167,20,1,0;                                                   47P     25
508,1,0,167,12,1,0;                                                   49P     26
508,1,0,167,9,1,0;                                                    51P     27
508,1,0,167,6,1,0;                                                    53P     28
508,4,0,167,25,1,0,0,167,26,1,0,0,167,27,1,0,0,167,28,0,0;            55P     29
508,1,0,167,1,1,0;                                                    57P     30
508,2,0,167,13,1,0,0,167,14,1,0;                                      59P     31
508,1,0,167,18,1,0;                                                   61P     32
508,1,0,167,10,1,0;                                                   63P     33
508,1,0,167,7,1,0;                                                    65P     34
508,1,0,167,4,1,0;                                                    67P     35
508,4,0,167,23,1,0,0,167,29,1,0,0,167,28,1,0,0,167,30,1,0;            69P     36
508,4,0,167,22,1,0,0,167,31,1,0,0,167,25,0,0,0,167,29,0,0;            71P     37
508,4,0,167,21,1,0,0,167,32,1,0,0,167,26,0,0,0,167,31,0,0;            73P     38
508,4,0,167,24,1,0,0,167,30,0,0,0,167,27,0,0,0,167,32,0,0;            75P     39
126,8,2,0,1,0,0,-3.14159265358979,-3.14159265358979,                  77P     40
-3.14159265358979,-1.5707963267949,-1.5707963267949,0.,0.,            77P     41
1.5707963267949,1.5707963267949,3.14159265358979,                     77P     42
3.14159265358979,3.14159265358979,1.,0.707106781186548,1.,            77P     43
0.707106781186548,1.,0.707106781186548,1.,0.707106781186548,1.,       77P     44
50.,79.6000000000003,-6.12323399573677D-15,50.,79.6000000000003,      77P     45
-50.,-3.06161699786838D-15,79.6000000000003,-50.,-50.,                77P     46
79.6000000000003,-50.,-50.,79.6000000000003,0.,-50.,                  77P     47
79.6000000000003,50.,-3.06161699786838D-15,79.6000000000003,50.,      77P     48
50.,79.6000000000003,50.,50.,79.6000000000003,                        77P     49
6.12323399573677D-15,-3.14159265358979,3.14159265358979,0.,0.,        77P     50
0.;                                                                   77P     51
126,1,1,0,0,1,0,-0.2,-0.2,0.,0.,1.,1.,50.,79.6000000000003,0.,        79P     52
50.,89.6000000000003,0.,-0.2,0.,0.,0.,0.;                             79P     53
126,8,2,0,1,0,0,-3.14159265358979,-3.14159265358979,                  81P     54
-3.14159265358979,-1.5707963267949,-1.5707963267949,0.,0.,            81P     55
1.5707963267949,1.5707963267949,3.14159265358979,                     81P     56
3.14159265358979,3.14159265358979,1.,0.707106781186548,1.,            81P     57
0.707106781186548,1.,0.707106781186548,1.,0.707106781186548,1.,       81P     58
50.,89.6000000000003,6.12323399573677D-15,50.,89.6000000000003,       81P     59
50.,-3.06161699786838D-15,89.6000000000003,50.,-50.,                  81P     60
89.6000000000003,50.,-50.,89.6000000000003,0.,-50.,                   81P     61
89.6000000000003,-50.,-3.06161699786838D-15,89.6000000000003,         81P     62
-50.,50.,89.6000000000003,-50.,50.,89.6000000000003,                  81P     63
-6.12323399573677D-15,-3.14159265358979,3.14159265358979,0.,0.,       81P     64
0.;                                                                   81P     65
126,8,2,0,1,0,0,-3.14159265358979,-3.14159265358979,                  83P     66
-3.14159265358979,-1.5707963267949,-1.5707963267949,0.,0.,            83P     67
1.5707963267949,1.5707963267949,3.14159265358979,                     83P     68
3.14159265358979,3.14159265358979,1.,0.707106781186552,1.,            83P     69
0.707106781186551,1.,0.707106781186551,1.,0.707106781186552,1.,       83P     70
-2.55000000001634,79.6000000000003,121.399999999856,                  83P     71
-2.55000000001634,79.6000000000003,123.949999999857,                  83P     72
-1.63334449958184D-11,79.6000000000003,123.949999999857,              83P     73
2.54999999998367,79.6000000000003,123.949999999857,                   83P     74
2.54999999998367,79.6000000000003,121.399999999856,                   83P     75
2.54999999998367,79.6000000000003,118.849999999856,                   83P     76
-1.63334449958184D-11,79.6000000000003,118.849999999856,              83P     77
-2.55000000001634,79.6000000000003,118.849999999856,                  83P     78
-2.55000000001634,79.6000000000003,121.399999999856,                  83P     79
-3.14159265358979,3.14159265358979,0.,0.,0.;                          83P     80
126,1,1,0,0,1,0,35.1372549019608,35.1372549019608,                    85P     81
39.0588235294117,39.0588235294117,1.,1.,-2.55000000001634,            85P     82
79.6000000000003,121.399999999856,-2.55000000001634,                  85P     83
89.6000000000003,121.399999999856,35.1372549019608,                   85P     84
39.0588235294117,0.,0.,0.;                                            85P     85
126,8,2,0,1,0,0,-3.14159265358979,-3.14159265358979,                  87P     86
-3.14159265358979,-1.5707963267949,-1.5707963267949,0.,0.,            87P     87
1.5707963267949,1.5707963267949,3.14159265358979,                     87P     88
3.14159265358979,3.14159265358979,1.,0.707106781186552,1.,            87P     89
0.707106781186551,1.,0.707106781186551,1.,0.707106781186552,1.,       87P     90
-2.55000000001634,89.6000000000003,121.399999999856,                  87P     91
-2.55000000001634,89.6000000000003,118.849999999856,                  87P     92
-1.63334449958184D-11,89.6000000000003,118.849999999856,              87P     93
2.54999999998367,89.6000000000003,118.849999999856,                   87P     94
2.54999999998367,89.6000000000003,121.399999999856,                   87P     95
2.54999999998367,89.6000000000003,123.949999999857,                   87P     96
-1.63334449958184D-11,89.6000000000003,123.949999999857,              87P     97
-2.55000000001634,89.6000000000003,123.949999999857,                  87P     98
-2.55000000001634,89.6000000000003,121.399999999856,                  87P     99
-3.14159265358979,3.14159265358979,0.,0.,0.;                          87P    100
126,8,2,0,1,0,0,-3.14159265358979,-3.14159265358979,                  89P    101
-3.14159265358979,-1.5707963267949,-1.5707963267949,0.,0.,            89P    102
1.5707963267949,1.5707963267949,3.14159265358979,                     89P    103
3.14159265358979,3.14159265358979,1.,0.707106781186546,1.,            89P    104
0.707106781186546,1.,0.707106781186546,1.,0.707106781186546,1.,       89P    105
-55.0500000000114,79.6000000000003,101.484004753815,                  89P    106
-55.0500000000114,79.6000000000003,104.034004753815,                  89P    107
-52.5000000000114,79.6000000000003,104.034004753815,                  89P    108
-49.9500000000114,79.6000000000003,104.034004753815,                  89P    109
-49.9500000000114,79.6000000000003,101.484004753815,                  89P    110
-49.9500000000114,79.6000000000003,98.934004753815,                   89P    111
-52.5000000000114,79.6000000000003,98.934004753815,                   89P    112
-55.0500000000114,79.6000000000003,98.934004753815,                   89P    113
-55.0500000000114,79.6000000000003,101.484004753815,                  89P    114
-3.14159265358979,3.14159265358979,0.,0.,0.;                          89P    115
126,1,1,0,0,1,0,35.1372549019609,35.1372549019609,                    91P    116
39.0588235294119,39.0588235294119,1.,1.,-55.0500000000114,            91P    117
79.6000000000003,101.484004753815,-55.0500000000114,                  91P    118
89.6000000000003,101.484004753815,35.1372549019609,                   91P    119
39.0588235294119,0.,0.,0.;                                            91P    120
126,8,2,0,1,0,0,-3.14159265358979,-3.14159265358979,                  93P    121
-3.14159265358979,-1.5707963267949,-1.5707963267949,0.,0.,            93P    122
1.5707963267949,1.5707963267949,3.14159265358979,                     93P    123
3.14159265358979,3.14159265358979,1.,0.707106781186546,1.,            93P    124
0.707106781186546,1.,0.707106781186546,1.,0.707106781186546,1.,       93P    125
-55.0500000000114,89.6000000000003,101.484004753815,                  93P    126
-55.0500000000114,89.6000000000003,98.934004753815,                   93P    127
-52.5000000000114,89.6000000000003,98.934004753815,                   93P    128
-49.9500000000114,89.6000000000003,98.934004753815,                   93P    129
-49.9500000000114,89.6000000000003,101.484004753815,                  93P    130
-49.9500000000114,89.6000000000003,104.034004753815,                  93P    131
-52.5000000000114,89.6000000000003,104.034004753815,                  93P    132
-55.0500000000114,89.6000000000003,104.034004753815,                  93P    133
-55.0500000000114,89.6000000000003,101.484004753815,                  93P    134
-3.14159265358979,3.14159265358979,0.,0.,0.;                          93P    135
126,8,2,0,1,0,0,-3.14159265358979,-3.14159265358979,                  95P    136
-3.14159265358979,-1.5707963267949,-1.5707963267949,0.,0.,            95P    137
1.5707963267949,1.5707963267949,3.14159265358979,                     95P    138
3.14159265358979,3.14159265358979,1.,0.707106781186546,1.,            95P    139
0.707106781186546,1.,0.707106781186546,1.,0.707106781186546,1.,       95P    140
49.9499999999992,79.6000000000003,101.484004753815,                   95P    141
49.9499999999992,79.6000000000003,104.034004753815,                   95P    142
52.4999999999992,79.6000000000003,104.034004753815,                   95P    143
55.0499999999992,79.6000000000003,104.034004753815,                   95P    144
55.0499999999992,79.6000000000003,101.484004753815,                   95P    145
55.0499999999992,79.6000000000003,98.934004753815,                    95P    146
52.4999999999992,79.6000000000003,98.934004753815,                    95P    147
49.9499999999992,79.6000000000003,98.934004753815,                    95P    148
49.9499999999992,79.6000000000003,101.484004753815,                   95P    149
-3.14159265358979,3.14159265358979,0.,0.,0.;                          95P    150
126,1,1,0,0,1,0,35.1372549019609,35.1372549019609,                    97P    151
39.0588235294119,39.0588235294119,1.,1.,49.9499999999992,             97P    152
79.6000000000003,101.484004753815,49.9499999999992,                   97P    153
89.6000000000003,101.484004753815,35.1372549019609,                   97P    154
39.0588235294119,0.,0.,0.;                                            97P    155
126,8,2,0,1,0,0,-3.14159265358979,-3.14159265358979,                  99P    156
-3.14159265358979,-1.5707963267949,-1.5707963267949,0.,0.,            99P    157
1.5707963267949,1.5707963267949,3.14159265358979,                     99P    158
3.14159265358979,3.14159265358979,1.,0.707106781186546,1.,            99P    159
0.707106781186546,1.,0.707106781186546,1.,0.707106781186546,1.,       99P    160
49.9499999999992,89.6000000000003,101.484004753815,                   99P    161
49.9499999999992,89.6000000000003,98.934004753815,                    99P    162
52.4999999999992,89.6000000000003,98.934004753815,                    99P    163
55.0499999999992,89.6000000000003,98.934004753815,                    99P    164
55.0499999999992,89.6000000000003,101.484004753815,                   99P    165
55.0499999999992,89.6000000000003,104.034004753815,                   99P    166
52.4999999999992,89.6000000000003,104.034004753815,                   99P    167
49.9499999999992,89.6000000000003,104.034004753815,                   99P    168
49.9499999999992,89.6000000000003,101.484004753815,                   99P    169
-3.14159265358979,3.14159265358979,0.,0.,0.;                          99P    170
126,2,2,0,0,0,0,-0.550527501666657,-0.550527501666657,               101P    171
-0.550527501666657,0.,0.,0.,1.,0.962353543422755,1.,                 101P    172
-54.6143430794337,79.6000000000003,120.066000995904,                 101P    173
-54.9911089324874,79.6000000000003,120.679794870437,                 101P    174
-54.9911089324874,79.6000000000003,121.399999999856,                 101P    175
-0.550527501666657,0.,0.,0.,0.;                                      101P    176
126,8,2,0,0,0,0,0.,0.,0.,1.43316445137823,1.43316445137823,          103P    177
2.86632890275646,2.86632890275646,4.2994933541347,                   103P    178
4.2994933541347,5.73265780551293,5.73265780551293,                   103P    179
5.73265780551293,1.,0.754054961761025,1.,0.754054961761051,1.,       103P    180
0.75405496176103,1.,0.754054961761021,1.,-54.9911089324874,          103P    181
79.6000000000003,121.399999999856,-54.9911089324874,                 103P    182
79.6000000000003,123.621149597423,-52.7909632478052,                 103P    183
79.6000000000003,123.925886370629,-50.5908175631229,                 103P    184
79.6000000000003,124.230623143835,-49.9871073967591,                 103P    185
79.6000000000003,122.093091958144,-49.3833972303953,                 103P    186
79.6000000000003,119.955560772454,-51.4178875371139,                 103P    187
79.6000000000003,119.064294972236,-53.4523778438325,                 103P    188
79.6000000000003,118.173029172019,-54.6143430794337,                 103P    189
79.6000000000003,120.066000995904,0.,5.73265780551293,0.,0.,0.;      103P    190
126,1,1,0,0,1,0,35.1372549019609,35.1372549019609,                   105P    191
39.0588235294119,39.0588235294119,1.,1.,-54.9911089324874,           105P    192
79.6000000000003,121.399999999856,-54.9911089324874,                 105P    193
89.6000000000003,121.399999999856,35.1372549019609,                  105P    194
39.0588235294119,0.,0.,0.;                                           105P    195
126,8,2,0,0,0,0,0.,0.,0.,1.43316445137823,1.43316445137823,          107P    196
2.86632890275646,2.86632890275646,4.2994933541347,                   107P    197
4.2994933541347,5.73265780551293,5.73265780551293,                   107P    198
5.73265780551293,1.,0.754054961761025,1.,0.754054961761051,1.,       107P    199
0.75405496176103,1.,0.754054961761021,1.,-54.9911089324874,          107P    200
89.6000000000003,121.399999999856,-54.9911089324874,                 107P    201
89.6000000000003,123.621149597423,-52.7909632478052,                 107P    202
89.6000000000003,123.925886370629,-50.5908175631229,                 107P    203
89.6000000000003,124.230623143835,-49.9871073967591,                 107P    204
89.6000000000003,122.093091958144,-49.3833972303953,                 107P    205
89.6000000000003,119.955560772454,-51.4178875371139,                 107P    206
89.6000000000003,119.064294972236,-53.4523778438325,                 107P    207
89.6000000000003,118.173029172019,-54.6143430794337,                 107P    208
89.6000000000003,120.066000995904,0.,5.73265780551293,0.,0.,0.;      107P    209
126,2,2,0,0,0,0,-0.550527501666657,-0.550527501666657,               109P    210
-0.550527501666657,0.,0.,0.,1.,0.962353543422755,1.,                 109P    211
-54.6143430794337,89.6000000000003,120.066000995904,                 109P    212
-54.9911089324874,89.6000000000003,120.679794870437,                 109P    213
-54.9911089324874,89.6000000000003,121.399999999856,                 109P    214
-0.550527501666657,0.,0.,0.,0.;                                      109P    215
126,8,2,0,1,0,0,-3.14159265358979,-3.14159265358979,                 111P    216
-3.14159265358979,-1.5707963267949,-1.5707963267949,0.,0.,           111P    217
1.5707963267949,1.5707963267949,3.14159265358979,                    111P    218
3.14159265358979,3.14159265358979,1.,0.707106781186532,1.,           111P    219
0.707106781186532,1.,0.707106781186532,1.,0.707106781186532,1.,      111P    220
49.9499999999901,79.6000000000003,121.399999999856,                  111P    221
49.9499999999901,79.6000000000003,123.949999999857,                  111P    222
52.4999999999901,79.6000000000003,123.949999999857,                  111P    223
55.0499999999901,79.6000000000003,123.949999999857,                  111P    224
55.0499999999901,79.6000000000003,121.399999999856,                  111P    225
55.0499999999901,79.6000000000003,118.849999999856,                  111P    226
52.4999999999901,79.6000000000003,118.849999999856,                  111P    227
49.9499999999901,79.6000000000003,118.849999999856,                  111P    228
49.9499999999901,79.6000000000003,121.399999999856,                  111P    229
-3.14159265358979,3.14159265358979,0.,0.,0.;                         111P    230
126,1,1,0,0,1,0,35.1372549019609,35.1372549019609,                   113P    231
39.0588235294119,39.0588235294119,1.,1.,49.9499999999901,            113P    232
79.6000000000003,121.399999999856,49.9499999999901,                  113P    233
89.6000000000003,121.399999999856,35.1372549019609,                  113P    234
39.0588235294119,0.,0.,0.;                                           113P    235
126,8,2,0,1,0,0,-3.14159265358979,-3.14159265358979,                 115P    236
-3.14159265358979,-1.5707963267949,-1.5707963267949,0.,0.,           115P    237
1.5707963267949,1.5707963267949,3.14159265358979,                    115P    238
3.14159265358979,3.14159265358979,1.,0.707106781186532,1.,           115P    239
0.707106781186532,1.,0.707106781186532,1.,0.707106781186532,1.,      115P    240
49.9499999999901,89.6000000000003,121.399999999856,                  115P    241
49.9499999999901,89.6000000000003,118.849999999856,                  115P    242
52.4999999999901,89.6000000000003,118.849999999856,                  115P    243
55.0499999999901,89.6000000000003,118.849999999856,                  115P    244
55.0499999999901,89.6000000000003,121.399999999856,                  115P    245
55.0499999999901,89.6000000000003,123.949999999857,                  115P    246
52.4999999999901,89.6000000000003,123.949999999857,                  115P    247
49.9499999999901,89.6000000000003,123.949999999857,                  115P    248
49.9499999999901,89.6000000000003,121.399999999856,                  115P    249
-3.14159265358979,3.14159265358979,0.,0.,0.;                         115P    250
126,4,2,0,0,0,0,6.12323399573677D-17,6.12323399573677D-17,           117P    251
6.12323399573677D-17,1.5707963267949,1.5707963267949,                117P    252
3.14159265358979,3.14159265358979,3.14159265358979,1.,               117P    253
0.707106781186548,1.,0.707106781186548,1.,-60.,89.6000000000003,     117P    254
0.,-60.,89.6000000000003,-60.,-7.34788079488412D-15,                 117P    255
89.6000000000003,-60.,60.,89.6000000000003,-60.,60.,                 117P    256
89.6000000000003,-1.10218211923262D-14,6.12323399573677D-17,         117P    257
3.14159265358979,0.,0.,0.;                                           117P    258
126,1,1,0,0,1,0,-6.66999999999215,-6.66999999999215,                 119P    259
6.1699999999928,6.1699999999928,1.,1.,-60.,89.6000000000003,         119P    260
128.399999999849,-60.,89.6000000000003,0.,-6.66999999999215,         119P    261
6.1699999999928,0.,0.,0.;                                            119P    262
126,1,1,0,0,1,0,-3.75000000000227,-3.75000000000227,                 121P    263
8.24999999999773,8.24999999999773,1.,1.,59.9999999999832,            121P    264
89.6000000000003,128.399999999904,-60.0000000000169,                 121P    265
89.6000000000003,128.399999999849,-3.75000000000227,                 121P    266
8.24999999999773,0.,0.,0.;                                           121P    267
126,1,1,0,0,1,0,-9.13999999999041,-9.13999999999041,3.7,3.7,1.,      123P    268
1.,60.0000000000416,89.6000000000003,0.,59.9999999999832,            123P    269
89.6000000000003,128.399999999904,-9.13999999999041,3.7,0.,0.,       123P    270
0.;                                                                  123P    271
126,1,1,0,0,1,0,-0.499999999999355,-0.499999999999355,               125P    272
12.3399999999856,12.3399999999856,1.,1.,-60.,79.6000000000003,       125P    273
128.39999999985,-60.,79.6000000000003,0.,-0.499999999999355,         125P    274
12.3399999999856,0.,0.,0.;                                           125P    275
126,4,2,0,0,0,0,6.12323399573677D-17,6.12323399573677D-17,           127P    276
6.12323399573677D-17,1.5707963267949,1.5707963267949,                127P    277
3.14159265358979,3.14159265358979,3.14159265358979,1.,               127P    278
0.707106781186548,1.,0.707106781186548,1.,-60.,79.6000000000003,     127P    279
0.,-60.,79.6000000000003,-60.,-7.34788079488412D-15,                 127P    280
79.6000000000003,-60.,60.,79.6000000000003,-60.,60.,                 127P    281
79.6000000000003,-1.10218211923262D-14,6.12323399573677D-17,         127P    282
3.14159265358979,0.,0.,0.;                                           127P    283
126,1,1,0,0,1,0,-9.93999999999041,-9.93999999999041,2.9,2.9,1.,      129P    284
1.,60.0000000000496,79.6000000000003,0.,59.999999999998,             129P    285
79.6000000000003,128.399999999904,-9.93999999999041,2.9,0.,0.,       129P    286
0.;                                                                  129P    287
126,1,1,0,0,1,0,-5.99946843974566,-5.99946843974566,                 131P    288
6.00053156025562,6.00053156025562,1.,1.,-60.0000000000168,           131P    289
79.6000000000003,128.39999999985,59.999999999996,                    131P    290
79.6000000000003,128.399999999904,-5.99946843974566,                 131P    291
6.00053156025562,0.,0.,0.;                                           131P    292
126,1,1,0,0,1,0,-5.92654700540001,-5.92654700540001,                 133P    293
-4.92654700540001,-4.92654700540001,1.,1.,-60.0000000000168,         133P    294
89.6000000000003,128.399999999849,-60.0000000000168,                 133P    295
79.6000000000003,128.399999999849,-5.92654700540001,                 133P    296
-4.92654700540001,0.,0.,0.;                                          133P    297
126,1,1,0,0,1,0,10.4065470054,10.4065470054,11.4065470054,           135P    298
11.4065470054,1.,1.,59.9999999999832,79.6000000000003,               135P    299
128.399999999904,59.9999999999832,89.6000000000003,                  135P    300
128.399999999904,10.4065470054,11.4065470054,0.,0.,0.;               135P    301
126,1,1,0,0,1,0,1.,1.,2.,2.,1.,1.,-60.,89.6000000000003,0.,-60.,     137P    302
79.6000000000003,0.,1.,2.,0.,0.,0.;                                  137P    303
126,1,1,0,0,1,0,1.,1.,2.,2.,1.,1.,60.,89.6000000000003,              139P    304
3.67394039744206D-15,60.,79.6000000000003,3.67394039744206D-15,      139P    305
1.,2.,0.,0.,0.;                                                      139P    306
128,1,8,1,2,0,1,0,0,1,0.,0.,0.2,0.2,-3.14159265358979,               141P    307
-3.14159265358979,-3.14159265358979,-1.5707963267949,                141P    308
-1.5707963267949,0.,0.,1.5707963267949,1.5707963267949,              141P    309
3.14159265358979,3.14159265358979,3.14159265358979,1.,1.,            141P    310
0.707106781186548,0.707106781186548,1.,1.,0.707106781186548,         141P    311
0.707106781186548,1.,1.,0.707106781186548,0.707106781186548,1.,      141P    312
1.,0.707106781186548,0.707106781186548,1.,1.,50.,                    141P    313
89.6000000000003,0.,50.,79.6000000000003,0.,50.,                     141P    314
89.6000000000003,50.,50.,79.6000000000003,50.,0.,                    141P    315
89.6000000000003,50.,0.,79.6000000000003,50.,-50.,                   141P    316
89.6000000000003,50.,-50.,79.6000000000003,50.,-50.,                 141P    317
89.6000000000003,0.,-50.,79.6000000000003,0.,-50.,                   141P    318
89.6000000000003,-50.,-50.,79.6000000000003,-50.,0.,                 141P    319
89.6000000000003,-50.,0.,79.6000000000003,-50.,50.,                  141P    320
89.6000000000003,-50.,50.,79.6000000000003,-50.,50.,                 141P    321
89.6000000000003,0.,50.,79.6000000000003,0.,0.,0.2,                  141P    322
-3.14159265358979,3.14159265358979;                                  141P    323
128,1,8,1,2,0,1,0,0,1,35.1372549019608,35.1372549019608,             143P    324
39.0588235294117,39.0588235294117,-3.14159265358979,                 143P    325
-3.14159265358979,-3.14159265358979,-1.5707963267949,                143P    326
-1.5707963267949,0.,0.,1.5707963267949,1.5707963267949,              143P    327
3.14159265358979,3.14159265358979,3.14159265358979,1.,1.,            143P    328
0.707106781186548,0.707106781186548,1.,1.,0.707106781186548,         143P    329
0.707106781186548,1.,1.,0.707106781186548,0.707106781186548,1.,      143P    330
1.,0.707106781186548,0.707106781186548,1.,1.,-2.55000000001634,      143P    331
79.6000000000003,121.399999999856,-2.55000000001634,                 143P    332
89.6000000000003,121.399999999856,-2.55000000001634,                 143P    333
79.6000000000003,123.949999999857,-2.55000000001634,                 143P    334
89.6000000000003,123.949999999857,-1.63336011382853D-11,             143P    335
79.6000000000003,123.949999999857,-1.63336011382853D-11,             143P    336
89.6000000000003,123.949999999857,2.54999999998367,                  143P    337
79.6000000000003,123.949999999857,2.54999999998367,                  143P    338
89.6000000000003,123.949999999857,2.54999999998367,                  143P    339
79.6000000000003,121.399999999856,2.54999999998367,                  143P    340
89.6000000000003,121.399999999856,2.54999999998367,                  143P    341
79.6000000000003,118.849999999856,2.54999999998367,                  143P    342
89.6000000000003,118.849999999856,-1.63336011382853D-11,             143P    343
79.6000000000003,118.849999999856,-1.63336011382853D-11,             143P    344
89.6000000000003,118.849999999856,-2.55000000001634,                 143P    345
79.6000000000003,118.849999999856,-2.55000000001634,                 143P    346
89.6000000000003,118.849999999856,-2.55000000001634,                 143P    347
79.6000000000003,121.399999999856,-2.55000000001634,                 143P    348
89.6000000000003,121.399999999856,35.1372549019608,                  143P    349
39.0588235294117,-3.14159265358979,3.14159265358979;                 143P    350
128,1,8,1,2,0,1,0,0,1,35.1372549019609,35.1372549019609,             145P    351
39.0588235294119,39.0588235294119,-3.14159265358979,                 145P    352
-3.14159265358979,-3.14159265358979,-1.5707963267949,                145P    353
-1.5707963267949,0.,0.,1.5707963267949,1.5707963267949,              145P    354
3.14159265358979,3.14159265358979,3.14159265358979,1.,1.,            145P    355
0.707106781186548,0.707106781186548,1.,1.,0.707106781186548,         145P    356
0.707106781186548,1.,1.,0.707106781186548,0.707106781186548,1.,      145P    357
1.,0.707106781186548,0.707106781186548,1.,1.,-55.0500000000114,      145P    358
79.6000000000003,101.484004753815,-55.0500000000114,                 145P    359
89.6000000000003,101.484004753815,-55.0500000000114,                 145P    360
79.6000000000003,104.034004753815,-55.0500000000114,                 145P    361
89.6000000000003,104.034004753815,-52.5000000000114,                 145P    362
79.6000000000003,104.034004753815,-52.5000000000114,                 145P    363
89.6000000000003,104.034004753815,-49.9500000000114,                 145P    364
79.6000000000003,104.034004753815,-49.9500000000114,                 145P    365
89.6000000000003,104.034004753815,-49.9500000000114,                 145P    366
79.6000000000003,101.484004753815,-49.9500000000114,                 145P    367
89.6000000000003,101.484004753815,-49.9500000000114,                 145P    368
79.6000000000003,98.934004753815,-49.9500000000114,                  145P    369
89.6000000000003,98.934004753815,-52.5000000000114,                  145P    370
79.6000000000003,98.934004753815,-52.5000000000114,                  145P    371
89.6000000000003,98.934004753815,-55.0500000000114,                  145P    372
79.6000000000003,98.934004753815,-55.0500000000114,                  145P    373
89.6000000000003,98.934004753815,-55.0500000000114,                  145P    374
79.6000000000003,101.484004753815,-55.0500000000114,                 145P    375
89.6000000000003,101.484004753815,35.1372549019609,                  145P    376
39.0588235294119,-3.14159265358979,3.14159265358979;                 145P    377
128,1,8,1,2,0,1,0,0,1,35.1372549019609,35.1372549019609,             147P    378
39.0588235294119,39.0588235294119,-3.14159265358979,                 147P    379
-3.14159265358979,-3.14159265358979,-1.5707963267949,                147P    380
-1.5707963267949,0.,0.,1.5707963267949,1.5707963267949,              147P    381
3.14159265358979,3.14159265358979,3.14159265358979,1.,1.,            147P    382
0.707106781186548,0.707106781186548,1.,1.,0.707106781186548,         147P    383
0.707106781186548,1.,1.,0.707106781186548,0.707106781186548,1.,      147P    384
1.,0.707106781186548,0.707106781186548,1.,1.,49.9499999999992,       147P    385
79.6000000000003,101.484004753815,49.9499999999992,                  147P    386
89.6000000000003,101.484004753815,49.9499999999992,                  147P    387
79.6000000000003,104.034004753815,49.9499999999992,                  147P    388
89.6000000000003,104.034004753815,52.4999999999992,                  147P    389
79.6000000000003,104.034004753815,52.4999999999992,                  147P    390
89.6000000000003,104.034004753815,55.0499999999992,                  147P    391
79.6000000000003,104.034004753815,55.0499999999992,                  147P    392
89.6000000000003,104.034004753815,55.0499999999992,                  147P    393
79.6000000000003,101.484004753815,55.0499999999992,                  147P    394
89.6000000000003,101.484004753815,55.0499999999992,                  147P    395
79.6000000000003,98.934004753815,55.0499999999992,                   147P    396
89.6000000000003,98.934004753815,52.4999999999992,                   147P    397
79.6000000000003,98.934004753815,52.4999999999992,                   147P    398
89.6000000000003,98.934004753815,49.9499999999992,                   147P    399
79.6000000000003,98.934004753815,49.9499999999992,                   147P    400
89.6000000000003,98.934004753815,49.9499999999992,                   147P    401
79.6000000000003,101.484004753815,49.9499999999992,                  147P    402
89.6000000000003,101.484004753815,35.1372549019609,                  147P    403
39.0588235294119,-3.14159265358979,3.14159265358979;                 147P    404
128,1,8,1,2,0,1,0,0,1,35.1372549019609,35.1372549019609,             149P    405
39.0588235294119,39.0588235294119,-3.14159265358979,                 149P    406
-3.14159265358979,-3.14159265358979,-1.5707963267949,                149P    407
-1.5707963267949,0.,0.,1.5707963267949,1.5707963267949,              149P    408
3.14159265358979,3.14159265358979,3.14159265358979,1.,1.,            149P    409
0.707106781186548,0.707106781186548,1.,1.,0.707106781186548,         149P    410
0.707106781186548,1.,1.,0.707106781186548,0.707106781186548,1.,      149P    411
1.,0.707106781186548,0.707106781186548,1.,1.,-54.9911089324874,      149P    412
79.6000000000003,121.399999999856,-54.9911089324874,                 149P    413
89.6000000000003,121.399999999856,-54.9911089324874,                 149P    414
79.6000000000003,123.949999999856,-54.9911089324874,                 149P    415
89.6000000000003,123.949999999856,-52.4411089324874,                 149P    416
79.6000000000003,123.949999999857,-52.4411089324874,                 149P    417
89.6000000000003,123.949999999857,-49.8911089324874,                 149P    418
79.6000000000003,123.949999999856,-49.8911089324874,                 149P    419
89.6000000000003,123.949999999856,-49.8911089324874,                 149P    420
79.6000000000003,121.399999999856,-49.8911089324874,                 149P    421
89.6000000000003,121.399999999856,-49.8911089324874,                 149P    422
79.6000000000003,118.849999999857,-49.8911089324874,                 149P    423
89.6000000000003,118.849999999857,-52.4411089324874,                 149P    424
79.6000000000003,118.849999999856,-52.4411089324874,                 149P    425
89.6000000000003,118.849999999856,-54.9911089324874,                 149P    426
79.6000000000003,118.849999999857,-54.9911089324874,                 149P    427
89.6000000000003,118.849999999857,-54.9911089324874,                 149P    428
79.6000000000003,121.399999999856,-54.9911089324874,                 149P    429
89.6000000000003,121.399999999856,35.1372549019609,                  149P    430
39.0588235294119,-3.14159265358979,3.14159265358979;                 149P    431
128,1,8,1,2,0,1,0,0,1,35.1372549019609,35.1372549019609,             151P    432
39.0588235294119,39.0588235294119,-3.14159265358979,                 151P    433
-3.14159265358979,-3.14159265358979,-1.5707963267949,                151P    434
-1.5707963267949,0.,0.,1.5707963267949,1.5707963267949,              151P    435
3.14159265358979,3.14159265358979,3.14159265358979,1.,1.,            151P    436
0.707106781186548,0.707106781186548,1.,1.,0.707106781186548,         151P    437
0.707106781186548,1.,1.,0.707106781186548,0.707106781186548,1.,      151P    438
1.,0.707106781186548,0.707106781186548,1.,1.,49.9499999999901,       151P    439
79.6000000000003,121.399999999856,49.9499999999901,                  151P    440
89.6000000000003,121.399999999856,49.9499999999901,                  151P    441
79.6000000000003,123.949999999856,49.9499999999901,                  151P    442
89.6000000000003,123.949999999856,52.4999999999901,                  151P    443
79.6000000000003,123.949999999857,52.4999999999901,                  151P    444
89.6000000000003,123.949999999857,55.0499999999901,                  151P    445
79.6000000000003,123.949999999856,55.0499999999901,                  151P    446
89.6000000000003,123.949999999856,55.0499999999901,                  151P    447
79.6000000000003,121.399999999856,55.0499999999901,                  151P    448
89.6000000000003,121.399999999856,55.0499999999901,                  151P    449
79.6000000000003,118.849999999857,55.0499999999901,                  151P    450
89.6000000000003,118.849999999857,52.4999999999901,                  151P    451
79.6000000000003,118.849999999856,52.4999999999901,                  151P    452
89.6000000000003,118.849999999856,49.9499999999901,                  151P    453
79.6000000000003,118.849999999857,49.9499999999901,                  151P    454
89.6000000000003,118.849999999857,49.9499999999901,                  151P    455
79.6000000000003,121.399999999856,49.9499999999901,                  151P    456
89.6000000000003,121.399999999856,35.1372549019609,                  151P    457
39.0588235294119,-3.14159265358979,3.14159265358979;                 151P    458
128,1,1,1,1,0,0,1,0,0,-6.00100000000416,-6.00100000000416,           153P    459
6.00100000000169,6.00100000000169,-6.001,-6.001,                     153P    460
12.8409999999904,12.8409999999904,1.,1.,1.,1.,60.0100000000416,      153P    461
89.6000000000003,-60.01,-60.0100000000169,89.6000000000003,          153P    462
-60.01,60.0100000000416,89.6000000000003,128.409999999904,           153P    463
-60.0100000000169,89.6000000000003,128.409999999904,                 153P    464
-6.00100000000416,6.00100000000169,-6.001,12.8409999999904;          153P    465
128,1,1,1,1,0,0,1,0,0,-6.00100000000169,-6.00100000000169,           155P    466
6.00100000000496,6.00100000000496,-9.1709999999952,                  155P    467
-9.1709999999952,9.67099999999521,9.67099999999521,1.,1.,1.,1.,      155P    468
-60.0100000000169,79.6000000000003,-60.01,60.0100000000496,          155P    469
79.6000000000003,-60.01,-60.0100000000169,79.6000000000003,          155P    470
128.409999999904,60.0100000000496,79.6000000000003,                  155P    471
128.409999999904,-6.00100000000169,6.00100000000496,                 155P    472
-9.1709999999952,9.67099999999521;                                   155P    473
128,1,1,1,1,0,0,1,0,0,-10.5009999999996,-10.5009999999996,           157P    474
1.50100000000167,1.50100000000167,11.8520940108,11.8520940108,       157P    475
12.8540940108,12.8540940108,1.,1.,1.,1.,-60.0100000000168,           157P    476
79.5900000000003,128.399999999849,60.009999999996,                   157P    477
79.5900000000003,128.399999999904,-60.0100000000168,                 157P    478
89.6100000000003,128.399999999849,60.009999999996,                   157P    479
89.6100000000003,128.399999999904,-10.5009999999996,                 157P    480
1.50100000000167,11.8520940108,12.8540940108;                        157P    481
128,1,1,1,1,0,0,1,0,0,-0.500999999999355,-0.500999999999355,         159P    482
12.3409999999856,12.3409999999856,0.999,0.999,2.001,2.001,1.,1.,     159P    483
1.,1.,-60.,89.6100000000003,128.40999999985,-60.,                    159P    484
89.6100000000003,-0.00999999999999446,-60.,79.5900000000003,         159P    485
128.40999999985,-60.,79.5900000000003,-0.00999999999999446,          159P    486
-0.500999999999355,12.3409999999856,0.999,2.001;                     159P    487
128,1,4,1,2,0,0,0,0,0,0.166666666666667,0.166666666666667,           161P    488
0.333333333333333,0.333333333333333,6.12323399573677D-17,            161P    489
6.12323399573677D-17,6.12323399573677D-17,1.5707963267949,           161P    490
1.5707963267949,3.14159265358979,3.14159265358979,                   161P    491
3.14159265358979,1.,1.,0.707106781186548,0.707106781186548,1.,       161P    492
1.,0.707106781186548,0.707106781186548,1.,1.,-60.,                   161P    493
79.6000000000003,3.67394039744206D-15,-60.,89.6000000000003,         161P    494
3.67394039744206D-15,-60.,79.6000000000003,-60.,-60.,                161P    495
89.6000000000003,-60.,-3.67394039744206D-15,79.6000000000003,        161P    496
-60.,-3.67394039744206D-15,89.6000000000003,-60.,60.,                161P    497
79.6000000000003,-60.,60.,89.6000000000003,-60.,60.,                 161P    498
79.6000000000003,-3.67394039744206D-15,60.,89.6000000000003,         161P    499
-3.67394039744206D-15,0.166666666666667,0.333333333333333,           161P    500
6.12323399573677D-17,3.14159265358979;                               161P    501
128,1,1,1,1,0,0,1,0,0,-0.501000000000002,-0.501000000000002,         163P    502
12.3409999999904,12.3409999999904,8.95900000000003,                  163P    503
8.95900000000003,9.96100000000003,9.96100000000003,1.,1.,1.,1.,      163P    504
60.,79.5900000000003,128.409999999904,60.,79.5900000000003,          163P    505
-0.00999999999999446,60.,89.6100000000003,128.409999999904,60.,      163P    506
89.6100000000003,-0.00999999999999446,-0.501000000000002,            163P    507
12.3409999999904,8.95900000000003,9.96100000000003;                  163P    508
502,22,50.,79.6000000000003,-6.12323399573677D-15,50.,               165P    509
89.6000000000003,-6.12323399573677D-15,-2.55000000001634,            165P    510
79.6000000000003,121.399999999856,-2.55000000001634,89.6,            165P    511
121.399999999856,-55.0500000000114,79.6000000000003,                 165P    512
101.484004753815,-55.0500000000114,89.6,101.484004753815,            165P    513
49.9499999999992,79.6000000000003,101.484004753815,                  165P    514
49.9499999999992,89.6,101.484004753815,-54.6143430794337,            165P    515
79.6000000000003,120.066000995904,-54.9911089324874,                 165P    516
79.6000000000003,121.399999999856,-54.9911089324874,                 165P    517
89.6000000000003,121.399999999856,-54.6143430794337,89.6,            165P    518
120.066000995904,49.9499999999901,79.6000000000003,                  165P    519
121.399999999856,49.9499999999901,89.6,121.399999999856,-60.,        165P    520
89.6000000000003,0.,60.,89.6000000000003,3.67394039744206D-15,       165P    521
-60.0000000000168,89.6000000000003,128.399999999849,                 165P    522
59.9999999999832,89.6000000000003,128.399999999904,                  165P    523
-60.0000000000168,79.6000000000003,128.39999999985,-60.,             165P    524
79.6000000000003,0.,60.,79.6000000000003,3.67394039744206D-15,       165P    525
59.999999999996,79.6000000000003,128.399999999904;                   165P    526
504,32,77,165,1,165,1,79,165,1,165,2,81,165,2,165,2,83,165,3,        167P    527
165,3,85,165,3,165,4,87,165,4,165,4,89,165,5,165,5,91,165,5,165,     167P    528
6,93,165,6,165,6,95,165,7,165,7,97,165,7,165,8,99,165,8,165,8,       167P    529
101,165,9,165,10,103,165,10,165,9,105,165,10,165,11,107,165,11,      167P    530
165,12,109,165,12,165,11,111,165,13,165,13,113,165,13,165,14,        167P    531
115,165,14,165,14,117,165,15,165,16,119,165,17,165,15,121,165,       167P    532
18,165,17,123,165,16,165,18,125,165,19,165,20,127,165,20,165,21,     167P    533
129,165,21,165,22,131,165,19,165,22,133,165,17,165,19,135,165,       167P    534
22,165,18,137,165,15,165,20,139,165,16,165,21;                       167P    535
406,1,10HNG Metal 2;                                                 169P    536
314,100.,100.,100.,11HABS (White);                                   171P    537
314,62.7450980392157,62.7450980392157,62.7450980392157,13HSteel      173P    538
- Satin;                                                             173P    539
S      1G      2D    174P    539                                        T      1
